<svg width="381" height="336" viewBox="0 0 381 336" fill="none" xmlns="http://www.w3.org/2000/svg">
<g clip-path="url(#clip0_659_5498)">
<path d="M297.879 140H60.9701C50.5414 140 42.0872 141.724 42.0872 143.85V192.15C42.0872 194.276 50.5414 196 60.9701 196H297.879C308.307 196 316.762 194.276 316.762 192.15V143.85C316.762 141.724 308.307 140 297.879 140Z" fill="#CCE7D4"/>
<path fill-rule="evenodd" clip-rule="evenodd" d="M152.715 174.269L142.797 178.313V167.813L152.715 174.269Z" fill="#00A859"/>
<path fill-rule="evenodd" clip-rule="evenodd" d="M141.259 177.678L123.977 167.965L141.048 167.873L141.259 177.678Z" fill="#00A859"/>
<path fill-rule="evenodd" clip-rule="evenodd" d="M154.24 174.588L144.703 178.274L181.422 178.887L154.24 174.588Z" fill="#00A859"/>
<path fill-rule="evenodd" clip-rule="evenodd" d="M182.089 179.273L144.894 178.702L164.636 182.649L182.089 179.273Z" fill="#00A859"/>
<path fill-rule="evenodd" clip-rule="evenodd" d="M182.949 179.655L165.685 182.883L182.28 186.363L182.949 179.655Z" fill="#00A859"/>
<path fill-rule="evenodd" clip-rule="evenodd" d="M141.128 178.527L139.697 183.952L108.986 177.438L141.128 178.527Z" fill="#00A859"/>
<path fill-rule="evenodd" clip-rule="evenodd" d="M133.975 174.716L140.937 178.255L108.892 177.108L133.975 174.716Z" fill="#00A859"/>
<path fill-rule="evenodd" clip-rule="evenodd" d="M142.75 178.721L182.141 186.732L141.129 184.107L142.75 178.721Z" fill="#00A859"/>
<path fill-rule="evenodd" clip-rule="evenodd" d="M193.395 184.321L183.665 186.577L184.525 179.46L193.395 184.321Z" fill="#00A859"/>
<path fill-rule="evenodd" clip-rule="evenodd" d="M211.325 180.394L194.443 184.088L185.955 179.285L211.325 180.394Z" fill="#00A859"/>
<path fill-rule="evenodd" clip-rule="evenodd" d="M212.609 180.714L184.76 186.741L226.344 185.069L212.609 180.714Z" fill="#00A859"/>
<path fill-rule="evenodd" clip-rule="evenodd" d="M233.548 179.907L227.729 184.904L214.76 180.665L233.548 179.907Z" fill="#00A859"/>
<path fill-rule="evenodd" clip-rule="evenodd" d="M235.647 179.79L229.256 184.943L261.492 178.74L235.647 179.79Z" fill="#00A859"/>
<path fill-rule="evenodd" clip-rule="evenodd" d="M223.724 174.132L214.378 180.237L234.215 179.498L223.724 174.132Z" fill="#00A859"/>
<path fill-rule="evenodd" clip-rule="evenodd" d="M224.774 173.859L236.218 179.42L262.066 178.39L224.774 173.859Z" fill="#00A859"/>
<path fill-rule="evenodd" clip-rule="evenodd" d="M212.95 179.984L208.753 176.659L222.01 174.053L212.95 179.984Z" fill="#00A859"/>
<path fill-rule="evenodd" clip-rule="evenodd" d="M207.375 176.776L211.189 180.12L185.343 178.876L207.375 176.776Z" fill="#00A859"/>
<path fill-rule="evenodd" clip-rule="evenodd" d="M121.105 168.006L106.99 176.932L96.9756 167.948L121.105 168.006Z" fill="#00A859"/>
<path fill-rule="evenodd" clip-rule="evenodd" d="M133.218 174.345L108.897 176.678L122.346 168.24L133.218 174.345Z" fill="#00A859"/>
<path fill-rule="evenodd" clip-rule="evenodd" d="M106.798 159.023L120.723 167.578H96.7832L106.798 159.023Z" fill="#00A859"/>
<path fill-rule="evenodd" clip-rule="evenodd" d="M141.896 158.478L123.871 167.578L141.801 167.423L141.896 158.478Z" fill="#00A859"/>
<path fill-rule="evenodd" clip-rule="evenodd" d="M132.263 162.134L122.153 167.501L108.134 158.867L132.263 162.134Z" fill="#00A859"/>
<path fill-rule="evenodd" clip-rule="evenodd" d="M141.133 157.739L109.755 158.75L132.835 161.803L141.133 157.739Z" fill="#00A859"/>
<path fill-rule="evenodd" clip-rule="evenodd" d="M141.42 157.419L107.846 158.508L139.321 151.78L141.42 157.419Z" fill="#00A859"/>
<path fill-rule="evenodd" clip-rule="evenodd" d="M152.962 161.025L143.616 166.897L143.426 157.933L152.962 161.025Z" fill="#00A859"/>
<path fill-rule="evenodd" clip-rule="evenodd" d="M181.91 156.893L154.298 160.674L145.334 157.758L181.91 156.893Z" fill="#00A859"/>
<path fill-rule="evenodd" clip-rule="evenodd" d="M161.597 153.47L142.903 157.204L141.187 151.642L161.597 153.47Z" fill="#00A859"/>
<path fill-rule="evenodd" clip-rule="evenodd" d="M163.126 153.734L145.281 157.328L182.004 156.5L163.126 153.734Z" fill="#00A859"/>
<path fill-rule="evenodd" clip-rule="evenodd" d="M164.188 153.452L183.073 156.31L182.501 149.616L164.188 153.452Z" fill="#00A859"/>
<path fill-rule="evenodd" clip-rule="evenodd" d="M183.825 149.463L184.611 156.375L194.053 151.723L183.825 149.463Z" fill="#00A859"/>
<path fill-rule="evenodd" clip-rule="evenodd" d="M162.939 153.24L141.98 151.402L182.323 149.258L162.939 153.24Z" fill="#00A859"/>
<path fill-rule="evenodd" clip-rule="evenodd" d="M212.94 155.85L185.686 156.813L207.074 159.015L212.94 155.85Z" fill="#00A859"/>
<path fill-rule="evenodd" clip-rule="evenodd" d="M213.3 155.449L195.273 151.971L186.332 156.39L213.3 155.449Z" fill="#00A859"/>
<path fill-rule="evenodd" clip-rule="evenodd" d="M224.459 162.04L208.866 159.226L214.589 156.003L224.459 162.04Z" fill="#00A859"/>
<path fill-rule="evenodd" clip-rule="evenodd" d="M234.26 156.863L216.021 155.784L225.677 161.734L234.26 156.863Z" fill="#00A859"/>
<path fill-rule="evenodd" clip-rule="evenodd" d="M236.549 156.907L226.75 162.215L260.869 158.336L236.549 156.907Z" fill="#00A859"/>
<path fill-rule="evenodd" clip-rule="evenodd" d="M226.107 150.826L184.976 149.294L214.662 155.128L226.107 150.826Z" fill="#00A859"/>
<path fill-rule="evenodd" clip-rule="evenodd" d="M235.264 156.411L227.109 151.117L216.593 155.317L235.264 156.411Z" fill="#00A859"/>
<path fill-rule="evenodd" clip-rule="evenodd" d="M228.61 151.131L261.802 158.03L236.981 156.498L228.61 151.131Z" fill="#00A859"/>
<path d="M297.879 140H60.9701C50.5414 140 42.0872 141.724 42.0872 143.85V192.15C42.0872 194.276 50.5414 196 60.9701 196H297.879C308.307 196 316.762 194.276 316.762 192.15V143.85C316.762 141.724 308.307 140 297.879 140Z" fill="#CCE7D4"/>
<path fill-rule="evenodd" clip-rule="evenodd" d="M152.715 174.269L142.797 178.313V167.813L152.715 174.269Z" fill="#00A859"/>
<path fill-rule="evenodd" clip-rule="evenodd" d="M141.259 177.678L123.977 167.965L141.048 167.873L141.259 177.678Z" fill="#00A859"/>
<path fill-rule="evenodd" clip-rule="evenodd" d="M154.24 174.588L144.703 178.274L181.422 178.887L154.24 174.588Z" fill="#00A859"/>
<path fill-rule="evenodd" clip-rule="evenodd" d="M182.089 179.273L144.894 178.702L164.636 182.649L182.089 179.273Z" fill="#00A859"/>
<path fill-rule="evenodd" clip-rule="evenodd" d="M182.949 179.655L165.685 182.883L182.28 186.363L182.949 179.655Z" fill="#00A859"/>
<path fill-rule="evenodd" clip-rule="evenodd" d="M141.128 178.527L139.697 183.952L108.986 177.438L141.128 178.527Z" fill="#00A859"/>
<path fill-rule="evenodd" clip-rule="evenodd" d="M133.975 174.716L140.937 178.255L108.892 177.108L133.975 174.716Z" fill="#00A859"/>
<path fill-rule="evenodd" clip-rule="evenodd" d="M142.75 178.721L182.141 186.732L141.129 184.107L142.75 178.721Z" fill="#00A859"/>
<path fill-rule="evenodd" clip-rule="evenodd" d="M193.395 184.321L183.665 186.577L184.525 179.46L193.395 184.321Z" fill="#00A859"/>
<path fill-rule="evenodd" clip-rule="evenodd" d="M211.325 180.394L194.443 184.088L185.955 179.285L211.325 180.394Z" fill="#00A859"/>
<path fill-rule="evenodd" clip-rule="evenodd" d="M212.609 180.714L184.76 186.741L226.344 185.069L212.609 180.714Z" fill="#00A859"/>
<path fill-rule="evenodd" clip-rule="evenodd" d="M233.548 179.907L227.729 184.904L214.76 180.665L233.548 179.907Z" fill="#00A859"/>
<path fill-rule="evenodd" clip-rule="evenodd" d="M235.647 179.79L229.256 184.943L261.492 178.74L235.647 179.79Z" fill="#00A859"/>
<path fill-rule="evenodd" clip-rule="evenodd" d="M223.724 174.132L214.378 180.237L234.215 179.498L223.724 174.132Z" fill="#00A859"/>
<path fill-rule="evenodd" clip-rule="evenodd" d="M224.774 173.859L236.218 179.42L262.066 178.39L224.774 173.859Z" fill="#00A859"/>
<path fill-rule="evenodd" clip-rule="evenodd" d="M212.95 179.984L208.753 176.659L222.01 174.053L212.95 179.984Z" fill="#00A859"/>
<path fill-rule="evenodd" clip-rule="evenodd" d="M207.375 176.776L211.189 180.12L185.343 178.876L207.375 176.776Z" fill="#00A859"/>
<path fill-rule="evenodd" clip-rule="evenodd" d="M121.105 168.006L106.99 176.932L96.9756 167.948L121.105 168.006Z" fill="#00A859"/>
<path fill-rule="evenodd" clip-rule="evenodd" d="M133.218 174.345L108.897 176.678L122.346 168.24L133.218 174.345Z" fill="#00A859"/>
<path fill-rule="evenodd" clip-rule="evenodd" d="M106.798 159.023L120.723 167.578H96.7832L106.798 159.023Z" fill="#00A859"/>
<path fill-rule="evenodd" clip-rule="evenodd" d="M141.896 158.478L123.871 167.578L141.801 167.423L141.896 158.478Z" fill="#00A859"/>
<path fill-rule="evenodd" clip-rule="evenodd" d="M132.263 162.134L122.153 167.501L108.134 158.867L132.263 162.134Z" fill="#00A859"/>
<path fill-rule="evenodd" clip-rule="evenodd" d="M141.133 157.739L109.755 158.75L132.835 161.803L141.133 157.739Z" fill="#00A859"/>
<path fill-rule="evenodd" clip-rule="evenodd" d="M141.42 157.419L107.846 158.508L139.321 151.78L141.42 157.419Z" fill="#00A859"/>
<path fill-rule="evenodd" clip-rule="evenodd" d="M152.962 161.025L143.616 166.897L143.426 157.933L152.962 161.025Z" fill="#00A859"/>
<path fill-rule="evenodd" clip-rule="evenodd" d="M181.91 156.893L154.298 160.674L145.334 157.758L181.91 156.893Z" fill="#00A859"/>
<path fill-rule="evenodd" clip-rule="evenodd" d="M161.597 153.47L142.903 157.204L141.187 151.642L161.597 153.47Z" fill="#00A859"/>
<path fill-rule="evenodd" clip-rule="evenodd" d="M163.126 153.734L145.281 157.328L182.004 156.5L163.126 153.734Z" fill="#00A859"/>
<path fill-rule="evenodd" clip-rule="evenodd" d="M164.188 153.452L183.073 156.31L182.501 149.616L164.188 153.452Z" fill="#00A859"/>
<path fill-rule="evenodd" clip-rule="evenodd" d="M183.825 149.463L184.611 156.375L194.053 151.723L183.825 149.463Z" fill="#00A859"/>
<path fill-rule="evenodd" clip-rule="evenodd" d="M162.939 153.24L141.98 151.402L182.323 149.258L162.939 153.24Z" fill="#00A859"/>
<path fill-rule="evenodd" clip-rule="evenodd" d="M212.94 155.85L185.686 156.813L207.074 159.015L212.94 155.85Z" fill="#00A859"/>
<path fill-rule="evenodd" clip-rule="evenodd" d="M213.3 155.449L195.273 151.971L186.332 156.39L213.3 155.449Z" fill="#00A859"/>
<path fill-rule="evenodd" clip-rule="evenodd" d="M224.459 162.04L208.866 159.226L214.589 156.003L224.459 162.04Z" fill="#00A859"/>
<path fill-rule="evenodd" clip-rule="evenodd" d="M234.26 156.863L216.021 155.784L225.677 161.734L234.26 156.863Z" fill="#00A859"/>
<path fill-rule="evenodd" clip-rule="evenodd" d="M236.549 156.907L226.75 162.215L260.869 158.336L236.549 156.907Z" fill="#00A859"/>
<path fill-rule="evenodd" clip-rule="evenodd" d="M226.107 150.826L184.976 149.294L214.662 155.128L226.107 150.826Z" fill="#00A859"/>
<path fill-rule="evenodd" clip-rule="evenodd" d="M235.264 156.411L227.109 151.117L216.593 155.317L235.264 156.411Z" fill="#00A859"/>
<path fill-rule="evenodd" clip-rule="evenodd" d="M228.61 151.131L261.802 158.03L236.981 156.498L228.61 151.131Z" fill="#00A859"/>
</g>
<defs>
<clipPath id="clip0_659_5498">
<rect width="274.674" height="56" fill="white" transform="translate(42.0872 140)"/>
</clipPath>
</defs>
</svg>
