<svg width="520" height="388" viewBox="0 0 520 388" fill="none" xmlns="http://www.w3.org/2000/svg">
<g clip-path="url(#clip0_52_2870)">
<path d="M520 340.548H0V340.808H520V340.548Z" fill="#EBEBEB"/>
<path d="M328.297 347.63H301.818V347.89H328.297V347.63Z" fill="#EBEBEB"/>
<path d="M473.658 353.257H410.915V353.517H473.658V353.257Z" fill="#EBEBEB"/>
<path d="M296.182 347.755H231.358V348.015H296.182V347.755Z" fill="#EBEBEB"/>
<path d="M189.321 355.534H175.76V355.794H189.321V355.534Z" fill="#EBEBEB"/>
<path d="M264.254 355.534H202.499V355.794H264.254V355.534Z" fill="#EBEBEB"/>
<path d="M94.5466 351.146H54.5586V351.406H94.5466V351.146Z" fill="#EBEBEB"/>
<path d="M246.48 294.164H45.6663C44.0931 294.161 42.5853 293.534 41.4739 292.421C40.3625 291.308 39.7383 289.799 39.7383 288.226V5.9384C39.752 4.37427 40.3822 2.8787 41.4922 1.77655C42.6021 0.674398 44.1021 0.0546814 45.6663 0.052002H246.48C248.055 0.052002 249.565 0.677653 250.679 1.79132C251.793 2.90499 252.418 4.41544 252.418 5.9904V288.226C252.418 289.801 251.793 291.311 250.679 292.425C249.565 293.538 248.055 294.164 246.48 294.164ZM45.6663 0.260003C44.1621 0.262758 42.7204 0.86223 41.6578 1.92684C40.5951 2.99145 39.9983 4.4342 39.9983 5.9384V288.226C39.9983 289.73 40.5951 291.173 41.6578 292.237C42.7204 293.302 44.1621 293.901 45.6663 293.904H246.48C247.985 293.901 249.428 293.302 250.492 292.238C251.556 291.173 252.156 289.731 252.158 288.226V5.9384C252.156 4.43324 251.556 2.99051 250.492 1.9262C249.428 0.861892 247.985 0.262752 246.48 0.260003H45.6663Z" fill="#EBEBEB"/>
<path d="M471.443 294.164H270.619C269.044 294.161 267.536 293.535 266.423 292.422C265.309 291.309 264.683 289.8 264.68 288.226V5.9384C264.697 4.37332 265.329 2.87776 266.441 1.7759C267.552 0.674035 269.053 0.0546522 270.619 0.052002H471.443C473.005 0.0574146 474.502 0.678341 475.61 1.7802C476.718 2.88206 477.346 4.37606 477.36 5.9384V288.226C477.36 289.797 476.737 291.304 475.628 292.417C474.519 293.53 473.014 294.158 471.443 294.164ZM270.619 0.260003C269.113 0.262752 267.671 0.861892 266.606 1.9262C265.542 2.99051 264.943 4.43324 264.94 5.9384V288.226C264.943 289.731 265.542 291.173 266.606 292.238C267.671 293.302 269.113 293.901 270.619 293.904H471.443C472.948 293.901 474.39 293.302 475.455 292.238C476.519 291.173 477.118 289.731 477.121 288.226V5.9384C477.118 4.43324 476.519 2.99051 475.455 1.9262C474.39 0.861892 472.948 0.262752 471.443 0.260003H270.619Z" fill="#EBEBEB"/>
<path d="M203.798 250.339H134.742L130.551 201.979H199.607L203.798 250.339Z" fill="#E6E6E6"/>
<path d="M207.376 250.339H138.32L134.129 201.979H203.185L207.376 250.339Z" fill="#F0F0F0"/>
<path d="M147.763 239.959L145.455 212.368H193.742L196.051 239.959H147.763Z" fill="white"/>
<path d="M219.326 250.338H211.224V340.538H219.326V250.338Z" fill="#E6E6E6"/>
<path d="M221.884 250.338H216.258V340.538H221.884V250.338Z" fill="#F0F0F0"/>
<path d="M143.457 260.291H221.884V250.338H143.457V260.291Z" fill="#F0F0F0"/>
<path d="M146.224 260.302H138.123V340.548H146.224V260.302Z" fill="#E6E6E6"/>
<path d="M148.782 260.302H143.156V340.548H148.782V260.302Z" fill="#F0F0F0"/>
<path d="M88.5562 260.302H80.4546V340.548H88.5562V260.302Z" fill="#E6E6E6"/>
<path d="M91.1142 260.302H85.4878V340.548H91.1142V260.302Z" fill="#F0F0F0"/>
<path d="M168.054 260.302H159.952V340.548H168.054V260.302Z" fill="#E6E6E6"/>
<path d="M170.601 260.302H164.975V340.548H170.601V260.302Z" fill="#F0F0F0"/>
<path d="M143.458 250.338H80.4546V260.291H143.458V250.338Z" fill="#E6E6E6"/>
<path d="M378.394 25.4385H134.69V161.117H378.394V25.4385Z" fill="#E0E0E0"/>
<path d="M391.778 25.4385H135.917V161.117H391.778V25.4385Z" fill="#F5F5F5"/>
<path d="M387.598 156.936V29.6191L140.098 29.6191V156.936H387.598Z" fill="white"/>
<path d="M240.313 156.936L287.04 29.6191H209.924L163.197 156.936H240.313Z" fill="#F5F5F5"/>
<path d="M314.537 156.936L361.265 29.6191H303.087L256.36 156.936H314.537Z" fill="#F5F5F5"/>
<path d="M455.635 210.964H434.918V340.548H455.635V210.964Z" fill="#E6E6E6"/>
<path d="M450.185 340.548H455.635V330.564H444.476L450.185 340.548Z" fill="#FAFAFA"/>
<path d="M264.628 210.964H243.911V340.548H264.628V210.964Z" fill="#E6E6E6"/>
<path d="M455.634 210.964H259.875V337.854H455.634V210.964Z" fill="#FAFAFA"/>
<path d="M451.932 251.909H263.588V216.07H451.932V251.909ZM264.628 250.869H450.892V217.11H264.628V250.869Z" fill="#E6E6E6"/>
<path d="M418.777 233.47H300.394C294.902 233.47 289.609 229.039 285.834 221.302L285.48 220.563H433.68L433.326 221.302C429.52 229.039 424.32 233.47 418.777 233.47ZM287.186 221.572C290.701 228.467 295.506 232.398 300.394 232.398H418.777C423.686 232.398 428.47 228.467 431.985 221.572H287.186Z" fill="#E6E6E6"/>
<path d="M265.325 340.548H259.875V330.564H271.034L265.325 340.548Z" fill="#FAFAFA"/>
<path d="M451.932 292.292H263.588V256.495H451.932V292.292ZM264.628 291.252H450.892V257.535H264.628V291.252Z" fill="#E6E6E6"/>
<path d="M418.777 273.894H300.394C294.902 273.894 289.609 269.454 285.834 261.726L285.48 260.978H433.68L433.326 261.726C429.52 269.412 424.32 273.894 418.777 273.894ZM287.186 262.018C290.701 268.913 295.506 272.854 300.394 272.854H418.777C423.686 272.854 428.47 268.913 431.985 262.018H287.186Z" fill="#E6E6E6"/>
<path d="M451.932 332.748H263.588V296.91H451.932V332.748ZM264.628 331.708H450.892V297.95H264.628V331.708Z" fill="#E6E6E6"/>
<path d="M418.777 314.309H300.394C294.902 314.309 289.609 309.878 285.834 302.151L285.48 301.402H433.68L433.326 302.151C429.52 309.878 424.32 314.309 418.777 314.309ZM287.186 302.442C290.701 309.338 295.506 313.269 300.394 313.269H418.777C423.686 313.269 428.47 309.338 431.985 302.442H287.186Z" fill="#E6E6E6"/>
<path d="M125.819 228.103V230.62H124.217L122.886 250.338H103.293L101.972 230.62H100.36V228.103H125.819Z" fill="#E6E6E6"/>
<path d="M119.371 179.15C117.77 167.398 101.91 164.05 81.7858 163.613C62.6394 163.207 56.5034 156.437 56.5034 156.437C56.5034 156.437 56.5658 183.862 84.157 193.804C110.355 203.226 120.983 190.923 119.371 179.15Z" fill="#E6E6E6"/>
<path d="M109.595 205.785C109.928 200.959 117.645 192.078 136.209 196.113C149.625 199.035 154.617 192.078 154.617 192.078C154.617 192.078 153.369 211.713 133.193 217.61C114.025 223.215 109.002 214.292 109.595 205.785Z" fill="#E6E6E6"/>
<path d="M113.828 235.508C113.933 235.509 114.036 235.487 114.131 235.444C114.227 235.401 114.311 235.338 114.379 235.258C115.721 233.667 114.619 229.861 113.1 224.588C111.145 217.828 108.711 209.404 110.771 203.299C111.912 200.074 113.246 196.921 114.764 193.856C117.676 187.699 120.193 182.416 118.092 176.821C118.059 176.732 118.009 176.65 117.945 176.581C117.88 176.511 117.803 176.455 117.716 176.416C117.63 176.376 117.537 176.355 117.442 176.351C117.347 176.348 117.253 176.364 117.164 176.398C117.075 176.432 116.994 176.482 116.925 176.548C116.856 176.613 116.801 176.691 116.763 176.778C116.724 176.865 116.703 176.958 116.701 177.053C116.699 177.148 116.716 177.242 116.751 177.33C118.633 182.312 116.355 187.138 113.464 193.253C111.926 196.367 110.572 199.569 109.408 202.842C107.214 209.373 109.71 218.036 111.717 224.983C112.903 229.143 114.13 233.303 113.287 234.343C113.22 234.415 113.169 234.5 113.137 234.593C113.105 234.685 113.092 234.784 113.1 234.881C113.108 234.979 113.136 235.074 113.182 235.161C113.229 235.247 113.293 235.323 113.371 235.383C113.503 235.478 113.666 235.522 113.828 235.508Z" fill="#E6E6E6"/>
<path d="M260 387.514C371.366 387.514 461.646 382.243 461.646 375.742C461.646 369.24 371.366 363.969 260 363.969C148.634 363.969 58.3545 369.24 58.3545 375.742C58.3545 382.243 148.634 387.514 260 387.514Z" fill="#F5F5F5"/>
<path d="M259.959 318.344H112.279L104.198 80.8391H251.878L259.959 318.344Z" fill="#0EA800"/>
<path d="M267.332 310.97H119.652L111.561 73.4656H259.241L267.332 310.97Z" fill="#0EA800"/>
<path opacity="0.3" d="M267.332 310.97H119.652L111.561 73.4656H259.241L267.332 310.97Z" fill="white"/>
<path d="M217.852 171.188C233.664 155.103 232.991 128.801 216.349 112.441C199.707 96.081 173.397 95.8583 157.585 111.943C141.773 128.029 142.445 154.33 159.087 170.69C175.73 187.05 202.039 187.273 217.852 171.188Z" fill="#0EA800"/>
<path d="M222.009 141.586C222.222 147.245 220.987 152.865 218.421 157.914C215.652 163.354 211.421 167.916 206.204 171.087C200.987 174.257 194.99 175.912 188.885 175.864C182.637 175.83 176.507 174.154 171.111 171.003C165.715 167.853 161.243 163.338 158.142 157.914C155.252 152.942 153.637 147.333 153.442 141.586C153.25 137.129 153.966 132.68 155.547 128.509C157.127 124.338 159.539 120.532 162.636 117.322C165.734 114.112 169.451 111.566 173.563 109.837C177.675 108.108 182.095 107.233 186.555 107.266C195.744 107.331 204.554 110.933 211.157 117.324C217.759 123.715 221.645 132.404 222.009 141.586Z" fill="white"/>
<path opacity="0.6" d="M218.4 157.913C215.631 163.354 211.4 167.916 206.183 171.087C200.966 174.257 194.969 175.912 188.864 175.864C182.616 175.83 176.486 174.154 171.09 171.003C165.694 167.853 161.222 163.338 158.122 157.913C166.917 151.917 177.325 148.729 187.97 148.772C198.786 148.795 209.361 151.972 218.4 157.913Z" fill="#0EA800"/>
<path opacity="0.6" d="M198.403 140.73C204.217 134.816 203.97 125.144 197.85 119.128C191.731 113.113 182.057 113.031 176.242 118.946C170.428 124.86 170.675 134.532 176.795 140.547C182.914 146.563 192.588 146.645 198.403 140.73Z" fill="#0EA800"/>
<path d="M237.661 224.962H143.458L142.823 206.242H237.026L237.661 224.962Z" fill="white"/>
<path d="M238.805 258.419H144.591L143.957 239.699H238.171L238.805 258.419Z" fill="white"/>
<path d="M202.447 242.278L179.744 245.398C179.527 245.423 179.318 245.492 179.129 245.602C178.941 245.711 178.777 245.858 178.648 246.034C178.519 246.21 178.428 246.411 178.38 246.623C178.332 246.836 178.329 247.056 178.371 247.27L181.356 262.486C181.453 262.932 181.714 263.326 182.088 263.59C182.461 263.853 182.92 263.968 183.373 263.91L206.076 260.79C206.293 260.763 206.501 260.692 206.688 260.581C206.876 260.469 207.038 260.321 207.166 260.145C207.294 259.968 207.384 259.767 207.431 259.555C207.478 259.342 207.48 259.122 207.439 258.908L204.464 243.693C204.367 243.247 204.105 242.854 203.731 242.592C203.358 242.33 202.899 242.218 202.447 242.278ZM195.926 257.691L191.766 258.242L191.36 253.334C190.932 253.148 190.554 252.862 190.259 252.5C189.964 252.138 189.76 251.711 189.665 251.254C189.589 250.899 189.588 250.533 189.662 250.178C189.736 249.824 189.883 249.488 190.095 249.194C190.307 248.9 190.578 248.654 190.891 248.471C191.204 248.288 191.551 248.173 191.912 248.134C192.65 248.038 193.398 248.224 194.006 248.653C194.615 249.083 195.04 249.725 195.198 250.453C195.288 250.892 195.261 251.348 195.118 251.773C194.976 252.199 194.723 252.579 194.387 252.876L195.926 257.691Z" fill="#0EA800"/>
<path d="M200.2 241.457C199.799 241.508 199.393 241.407 199.062 241.174C198.731 240.941 198.499 240.593 198.411 240.198L198.12 238.711C197.704 236.682 196.567 234.872 194.918 233.617C193.27 232.363 191.222 231.748 189.155 231.889C188.112 231.948 187.094 232.231 186.17 232.719C185.247 233.207 184.438 233.888 183.801 234.716C183.164 235.543 182.712 236.499 182.477 237.516C182.241 238.534 182.228 239.591 182.437 240.614L182.77 242.33C182.808 242.52 182.807 242.717 182.766 242.906C182.724 243.096 182.644 243.275 182.529 243.431C182.414 243.588 182.268 243.719 182.1 243.816C181.932 243.913 181.746 243.974 181.553 243.994C181.151 244.05 180.742 243.952 180.41 243.718C180.078 243.484 179.847 243.133 179.764 242.736L179.483 241.29C179.198 239.939 179.188 238.544 179.455 237.19C179.723 235.835 180.261 234.548 181.038 233.407C181.815 232.265 182.815 231.293 183.978 230.547C185.14 229.802 186.441 229.3 187.803 229.07C190.756 228.575 193.786 229.235 196.264 230.914C198.743 232.592 200.48 235.161 201.115 238.087L201.448 239.793C201.487 239.985 201.484 240.184 201.441 240.375C201.398 240.567 201.315 240.747 201.197 240.904C201.079 241.061 200.929 241.192 200.757 241.287C200.586 241.382 200.396 241.44 200.2 241.457Z" fill="#0EA800"/>
<path d="M223.257 284.638H161.928L161.522 272.449H222.841L223.257 284.638Z" fill="#0EA800"/>
<path d="M193.669 215.602C193.687 216.047 193.615 216.491 193.457 216.906C193.299 217.322 193.057 217.702 192.748 218.022C192.439 218.342 192.068 218.595 191.658 218.768C191.248 218.94 190.807 219.027 190.362 219.024C189.445 219.017 188.565 218.658 187.905 218.021C187.245 217.384 186.855 216.519 186.815 215.602C186.797 215.158 186.869 214.714 187.027 214.298C187.186 213.882 187.427 213.503 187.736 213.183C188.045 212.863 188.416 212.609 188.826 212.437C189.237 212.265 189.678 212.178 190.122 212.181C191.04 212.185 191.921 212.544 192.581 213.181C193.242 213.818 193.631 214.685 193.669 215.602Z" fill="#263238"/>
<path d="M178.88 215.602C178.9 216.047 178.829 216.492 178.671 216.908C178.513 217.325 178.272 217.705 177.963 218.025C177.653 218.345 177.282 218.599 176.871 218.771C176.46 218.942 176.018 219.029 175.573 219.024C174.657 219.017 173.779 218.657 173.121 218.02C172.462 217.383 172.074 216.518 172.037 215.602C172.019 215.158 172.091 214.714 172.249 214.298C172.407 213.882 172.648 213.503 172.958 213.183C173.267 212.863 173.638 212.609 174.048 212.437C174.458 212.265 174.899 212.178 175.344 212.181C176.261 212.185 177.14 212.544 177.799 213.181C178.458 213.819 178.845 214.686 178.88 215.602Z" fill="#263238"/>
<path d="M164.185 215.602C164.203 216.047 164.131 216.491 163.973 216.906C163.815 217.322 163.573 217.702 163.264 218.022C162.955 218.342 162.584 218.595 162.174 218.768C161.764 218.94 161.323 219.027 160.878 219.024C159.961 219.019 159.081 218.661 158.423 218.023C157.764 217.386 157.376 216.518 157.342 215.602C157.323 215.158 157.395 214.714 157.554 214.298C157.712 213.882 157.953 213.503 158.262 213.183C158.572 212.863 158.942 212.609 159.353 212.437C159.763 212.265 160.204 212.178 160.649 212.181C161.566 212.185 162.445 212.544 163.104 213.181C163.763 213.819 164.15 214.686 164.185 215.602Z" fill="#263238"/>
<path d="M208.406 215.602C208.424 216.047 208.352 216.491 208.194 216.906C208.035 217.322 207.794 217.702 207.485 218.022C207.176 218.342 206.805 218.595 206.395 218.768C205.984 218.94 205.544 219.027 205.099 219.024C204.182 219.019 203.302 218.661 202.643 218.023C201.985 217.386 201.597 216.518 201.563 215.602C201.547 215.159 201.622 214.717 201.782 214.304C201.942 213.89 202.185 213.513 202.495 213.196C202.805 212.879 203.177 212.629 203.587 212.459C203.997 212.29 204.437 212.206 204.88 212.212C205.79 212.219 206.662 212.574 207.318 213.205C207.974 213.836 208.363 214.694 208.406 215.602Z" fill="#263238"/>
<path d="M223.142 215.602C223.162 216.047 223.091 216.492 222.933 216.908C222.776 217.325 222.535 217.705 222.225 218.025C221.916 218.345 221.544 218.599 221.133 218.771C220.722 218.942 220.281 219.029 219.835 219.024C218.919 219.017 218.041 218.657 217.383 218.02C216.725 217.383 216.337 216.518 216.299 215.602C216.281 215.158 216.353 214.714 216.511 214.298C216.67 213.882 216.911 213.503 217.22 213.183C217.529 212.863 217.9 212.609 218.31 212.437C218.72 212.265 219.161 212.178 219.606 212.181C220.523 212.185 221.403 212.544 222.061 213.181C222.72 213.819 223.108 214.686 223.142 215.602Z" fill="#263238"/>
<path d="M347.266 124.103C348.649 126.329 349.804 128.45 350.989 130.665C352.175 132.881 353.246 135.106 354.297 137.384C356.44 141.996 358.213 146.77 359.601 151.663C359.788 152.277 359.923 152.932 360.079 153.566L360.308 154.533L360.422 155.012L360.557 155.802C360.792 157.595 360.683 159.417 360.235 161.169C359.517 163.889 358.425 166.496 356.99 168.917C354.424 173.315 351.322 177.377 347.755 181.012L343.377 177.705C345.574 173.665 347.53 169.497 349.232 165.225C349.99 163.342 350.524 161.377 350.823 159.369C350.919 158.756 350.89 158.13 350.74 157.529L350.324 156.26C350.157 155.74 350.001 155.22 349.804 154.689C348.222 150.399 346.392 146.204 344.323 142.126C342.243 137.966 340.007 133.806 337.771 129.833L347.266 124.103Z" fill="#FFBCBA"/>
<path d="M344.49 176.259L339.706 178.786L345.197 185.213C345.197 185.213 348.629 182.894 348.785 179.358L344.49 176.259Z" fill="#FFBCBA"/>
<path d="M333.289 182.749L339.165 187.418L345.197 185.214L339.705 178.786L333.289 182.749Z" fill="#FFBCBA"/>
<path d="M313.196 90.0743C313.081 90.6567 312.676 91.0623 312.301 90.9895C311.927 90.9167 311.709 90.3759 311.823 89.8039C311.937 89.2319 312.343 88.7639 312.728 88.8887C313.113 89.0135 313.31 89.4919 313.196 90.0743Z" fill="#263238"/>
<path d="M312.728 91.0728C311.681 92.7017 310.414 94.1786 308.963 95.4616C309.306 95.8166 309.721 96.0934 310.181 96.2729C310.64 96.4524 311.133 96.5304 311.626 96.5016L312.728 91.0728Z" fill="#FFBCBA"/>
<path d="M310.856 111.477V104.655L319.883 105.695C319.883 105.695 319.738 111.561 314.683 113.287L310.856 111.477Z" fill="#FFBCBA"/>
<path d="M313.456 99.7463L319.81 101.577L319.925 105.747L310.897 104.655L313.456 99.7463Z" fill="#FFBCBA"/>
<path opacity="0.2" d="M319.81 101.577L313.456 99.7463L312.218 102.118C312.286 103.986 312.87 105.799 313.905 107.356C314.94 108.913 316.387 110.152 318.084 110.937C319.176 109.412 319.814 107.609 319.925 105.737L319.81 101.577Z" fill="#5D4916"/>
<path d="M315.963 87.2974C316.029 87.2956 316.094 87.275 316.149 87.238C316.205 87.2009 316.249 87.149 316.276 87.0881C316.303 87.0272 316.313 86.9599 316.303 86.8938C316.294 86.8278 316.266 86.7658 316.223 86.715C315.857 86.3025 315.398 85.9834 314.885 85.7843C314.371 85.5853 313.817 85.5122 313.269 85.571C313.179 85.5863 313.099 85.6365 313.047 85.7105C312.994 85.7846 312.973 85.8766 312.988 85.9662C313.004 86.0565 313.053 86.1373 313.127 86.1916C313.201 86.2459 313.293 86.2695 313.383 86.2574C313.817 86.2148 314.255 86.2766 314.66 86.4376C315.066 86.5986 315.427 86.8542 315.713 87.183C315.745 87.2178 315.783 87.2458 315.826 87.2654C315.869 87.2851 315.915 87.2959 315.963 87.2974Z" fill="#263238"/>
<path d="M329.253 100.599C328.213 105.955 327.569 113.37 331.333 116.938C331.333 116.938 329.877 122.366 319.893 122.366C308.963 122.366 314.641 117.603 314.641 117.603C319.186 116.189 319.145 111.02 318.105 106.86L329.253 100.599Z" fill="#FFBCBA"/>
<path d="M333.361 120.515C334.339 119.142 334.297 114.785 333.257 114.015C331.583 112.777 324.397 112.486 314.725 114.712C315.765 118.934 313.539 121.139 313.539 121.139L333.361 120.515Z" fill="#0EA800"/>
<path d="M365.872 367.421C365.575 367.526 365.26 367.57 364.946 367.553C364.632 367.535 364.325 367.455 364.041 367.317C363.934 367.218 363.861 367.087 363.831 366.944C363.801 366.8 363.816 366.651 363.875 366.517C363.908 366.404 363.965 366.3 364.042 366.212C364.119 366.124 364.215 366.054 364.322 366.007C365.31 365.529 367.577 366.454 367.681 366.496C367.712 366.508 367.739 366.53 367.757 366.558C367.776 366.586 367.786 366.618 367.785 366.652C367.785 366.685 367.776 366.718 367.76 366.747C367.744 366.776 367.72 366.801 367.692 366.818C367.105 367.076 366.496 367.278 365.872 367.421ZM364.676 366.246C364.607 366.262 364.541 366.287 364.478 366.319C364.413 366.343 364.355 366.381 364.308 366.432C364.261 366.483 364.227 366.544 364.208 366.61C364.114 366.922 364.208 367.026 364.27 367.057C364.665 367.39 366.121 367.057 367.151 366.673C366.368 366.349 365.522 366.203 364.676 366.246Z" fill="#0EA800"/>
<path d="M367.65 366.829H367.567C366.735 366.589 364.967 365.331 364.946 364.509C364.946 364.379 364.989 364.252 365.071 364.15C365.152 364.048 365.266 363.976 365.393 363.948C365.517 363.902 365.649 363.883 365.78 363.894C365.911 363.905 366.039 363.945 366.153 364.01C367.13 364.509 367.754 366.527 367.775 366.621C367.79 366.646 367.797 366.675 367.797 366.704C367.797 366.733 367.79 366.762 367.775 366.787C367.759 366.803 367.739 366.815 367.718 366.823C367.696 366.83 367.673 366.832 367.65 366.829ZM365.57 364.239H365.487C365.279 364.312 365.279 364.416 365.279 364.468C365.279 364.957 366.465 365.945 367.359 366.34C367.141 365.757 366.662 364.603 366.028 364.26C365.887 364.196 365.727 364.188 365.581 364.239H365.57Z" fill="#0EA800"/>
<path d="M311.854 368.649C310.918 368.649 310.014 368.514 309.712 368.098C309.633 367.987 309.591 367.854 309.591 367.718C309.591 367.582 309.633 367.449 309.712 367.338C309.771 367.237 309.851 367.148 309.946 367.079C310.04 367.009 310.148 366.959 310.263 366.933C311.48 366.6 314.038 368.056 314.142 368.118C314.174 368.134 314.2 368.16 314.215 368.192C314.23 368.224 314.234 368.261 314.226 368.295C314.222 368.331 314.206 368.364 314.182 368.39C314.158 368.417 314.126 368.434 314.09 368.441C313.353 368.576 312.604 368.646 311.854 368.649ZM310.7 367.224C310.59 367.206 310.477 367.206 310.367 367.224C310.297 367.238 310.23 367.267 310.171 367.308C310.112 367.349 310.062 367.402 310.024 367.463C309.899 367.681 309.951 367.785 310.024 367.848C310.367 368.326 312.208 368.337 313.57 368.139C312.681 367.653 311.707 367.342 310.7 367.224Z" fill="#0EA800"/>
<path d="M314.08 368.441H314.007C313.123 368.045 311.376 366.465 311.511 365.633C311.511 365.435 311.678 365.196 312.156 365.154C312.327 365.134 312.5 365.15 312.665 365.2C312.83 365.25 312.982 365.334 313.113 365.445C313.779 366.242 314.179 367.228 314.257 368.264C314.257 368.294 314.25 368.323 314.237 368.35C314.225 368.377 314.207 368.401 314.184 368.42C314.152 368.436 314.116 368.443 314.08 368.441ZM312.291 365.477H312.187C311.875 365.477 311.855 365.622 311.855 365.664C311.771 366.163 312.957 367.411 313.862 367.952C313.782 367.117 313.444 366.328 312.895 365.695C312.724 365.549 312.505 365.472 312.281 365.477H312.291Z" fill="#0EA800"/>
<path d="M322.109 368.264H314.798L314.07 351.322H321.381L322.109 368.264Z" fill="#FFBCBA"/>
<path d="M375.804 364.884L368.659 366.434L361.473 350.646L368.628 349.107L375.804 364.884Z" fill="#FFBCBA"/>
<path d="M367.962 365.716L376.001 363.979C376.142 363.949 376.288 363.968 376.417 364.032C376.545 364.097 376.648 364.202 376.709 364.333L379.496 370.386C379.57 370.532 379.608 370.694 379.608 370.858C379.607 371.023 379.568 371.185 379.493 371.331C379.418 371.477 379.309 371.603 379.176 371.699C379.043 371.795 378.889 371.858 378.726 371.883C375.918 372.434 374.514 372.57 370.989 373.329C368.815 373.807 363.906 375.003 360.901 375.648C357.895 376.293 356.865 373.412 358.041 372.882C363.293 370.479 365.477 368.368 366.901 366.402C367.159 366.051 367.537 365.807 367.962 365.716Z" fill="#263238"/>
<path d="M314.849 367.421H322.837C322.982 367.422 323.122 367.472 323.235 367.563C323.348 367.653 323.428 367.779 323.461 367.921L324.906 374.421C324.949 374.578 324.954 374.743 324.921 374.902C324.888 375.061 324.818 375.211 324.717 375.338C324.616 375.466 324.486 375.568 324.338 375.636C324.19 375.704 324.029 375.737 323.866 375.731C320.985 375.679 316.825 375.513 313.206 375.513C308.963 375.513 305.313 375.741 300.341 375.741C297.336 375.741 296.504 372.705 297.762 372.424C303.482 371.176 308.162 371.041 313.102 367.993C313.621 367.646 314.226 367.448 314.849 367.421Z" fill="#263238"/>
<path d="M344.417 118.612C351.27 120.182 356.897 137.685 356.897 137.685L343.2 148.158C339.645 144.357 337.136 139.699 335.92 134.638C333.497 125.465 337.407 116.989 344.417 118.612Z" fill="#0EA800"/>
<path opacity="0.4" d="M344.417 118.612C351.27 120.182 356.897 137.685 356.897 137.685L343.2 148.158C339.645 144.357 337.136 139.699 335.92 134.638C333.497 125.465 337.407 116.989 344.417 118.612Z" fill="#5D4916"/>
<path d="M308.36 139.485C306.654 141.326 304.949 142.969 303.16 144.685C302.276 145.517 301.382 146.349 300.466 147.15L299.083 148.366L298.74 148.668L298.147 149.146C297.537 149.634 296.861 150.033 296.14 150.332C295.337 150.673 294.474 150.849 293.602 150.852C292.857 150.855 292.118 150.725 291.418 150.467C290.643 150.172 289.935 149.722 289.338 149.146C288.577 148.402 288.018 147.474 287.716 146.453C287.558 145.949 287.457 145.429 287.414 144.903C287.36 144.287 287.36 143.668 287.414 143.052C287.466 142.553 287.529 142.116 287.612 141.71C287.897 140.292 288.3 138.901 288.818 137.55C289.286 136.267 289.824 135.01 290.43 133.786C291.096 132.465 291.73 131.498 292.365 130.395C294.941 126.174 297.882 122.186 301.153 118.477C304.391 114.789 307.959 111.406 311.813 108.368L315.64 112.31C312.957 115.908 310.315 119.766 307.871 123.562C305.439 127.337 303.217 131.243 301.215 135.262C300.768 136.24 300.175 137.342 299.894 138.133C299.522 139.051 299.2 139.988 298.927 140.941C298.665 141.798 298.467 142.674 298.334 143.562C298.327 143.7 298.327 143.839 298.334 143.978C298.334 144.061 298.334 144.102 298.334 143.884C298.317 143.65 298.272 143.42 298.199 143.198C297.974 142.46 297.562 141.794 297.003 141.263C296.506 140.806 295.922 140.453 295.287 140.223C294.729 140.012 294.137 139.902 293.54 139.901C292.966 139.894 292.396 140.003 291.866 140.223C291.686 140.296 291.512 140.383 291.346 140.483L291.741 140.119L292.999 138.975L295.485 136.646C297.128 135.096 298.782 133.442 300.342 131.903L308.36 139.485Z" fill="#FFBCBA"/>
<path opacity="0.2" d="M338.541 131.466C342.264 135.148 343.481 141.866 343.741 147.69L343.138 148.158C339.582 144.357 337.074 139.699 335.858 134.638C335.722 134.098 335.598 133.598 335.504 133.006L338.541 131.466Z" fill="#5D4916"/>
<path d="M301.091 125.892C299.593 133.796 298.657 150.03 302.994 182.166H342.16C342.431 176.166 338.655 146.858 344.448 118.56C340.12 117.729 335.743 117.177 331.344 116.906C325.802 116.589 320.246 116.589 314.704 116.906C312.874 117.073 311.064 117.343 309.504 117.624C307.429 117.988 305.514 118.973 304.012 120.45C302.509 121.926 301.491 123.824 301.091 125.892Z" fill="#0EA800"/>
<path opacity="0.4" d="M301.091 125.892C299.593 133.796 298.657 150.03 302.994 182.166H342.16C342.431 176.166 338.655 146.858 344.448 118.56C340.12 117.729 335.743 117.177 331.344 116.906C325.802 116.589 320.246 116.589 314.704 116.906C312.874 117.073 311.064 117.343 309.504 117.624C307.429 117.988 305.514 118.973 304.012 120.45C302.509 121.926 301.491 123.824 301.091 125.892Z" fill="#5D4916"/>
<path opacity="0.2" d="M307.081 137.613L300.009 135.917C299.79 140.202 299.769 145.506 300.081 152.069C303.337 148.366 307.497 142.584 307.081 137.613Z" fill="#5D4916"/>
<path opacity="0.2" d="M314.07 351.333L314.444 360.058H321.766L321.391 351.333H314.07Z" fill="#5D4916"/>
<path opacity="0.2" d="M368.628 349.107L361.473 350.657L365.175 358.79L372.33 357.24L368.628 349.107Z" fill="#5D4916"/>
<path d="M332.727 92.7783C330.855 99.7879 330.106 103.99 325.78 106.902C319.28 111.332 311.168 106.257 310.96 98.8519C310.731 92.1647 313.841 81.8167 321.36 80.4023C323.012 80.0922 324.716 80.208 326.312 80.7387C327.907 81.2694 329.341 82.1976 330.478 83.4358C331.615 84.674 332.419 86.1814 332.812 87.8159C333.206 89.4504 333.176 91.1582 332.727 92.7783Z" fill="#FFBCBA"/>
<path d="M316.316 93.0384C315.962 92.1024 314.35 84.8536 315.869 82.9712C317.387 81.0888 334.703 82.4512 337.262 84.968C341.515 89.128 338.562 92.872 333.913 97.6872C330.418 101.306 330.283 105.383 328.515 106.007C325.395 107.047 320.632 106.07 319.675 102.773C318.718 99.476 316.316 93.0384 316.316 93.0384Z" fill="#263238"/>
<path d="M335.161 76.7207C329.046 74.1207 317.575 77.0015 311.376 75.5039C311.297 77.8087 312.055 80.0642 313.51 81.8536C314.965 83.643 317.018 84.8453 319.291 85.2383C324.432 86.2182 329.656 86.7023 334.891 86.6839C341.692 86.3719 340.361 78.9359 335.161 76.7207Z" fill="#263238"/>
<path d="M336.118 85.1863C338.352 85.4061 340.601 84.9764 342.597 83.9487C343.741 86.7151 337.449 87.4743 336.118 85.1863Z" fill="#263238"/>
<path d="M319.644 93.3295C319.504 95.1331 318.773 96.8401 317.564 98.1863C315.962 99.9439 314.298 98.8415 314.018 96.7095C313.768 94.7751 314.288 91.5095 316.243 90.5735C318.198 89.6375 319.779 91.1559 319.644 93.3295Z" fill="#FFBCBA"/>
<path d="M316.877 182.198C316.877 182.198 325.197 238.098 329.742 259.043C334.724 281.975 361.493 357.843 361.493 357.843L374.587 355.004C374.587 355.004 355.867 293.166 351.707 261.102C348.483 236.475 342.149 182.177 342.149 182.177L316.877 182.198Z" fill="#350000"/>
<path d="M358.353 353.486C358.301 353.486 360.797 358.228 360.797 358.228L375.523 355.035L374.286 350.605L358.353 353.486Z" fill="#263238"/>
<path opacity="0.3" d="M322.129 202.113C331.729 203.996 330.71 239.793 329.555 258.211C326.789 245.19 322.733 220.147 319.966 202.373C320.637 202.042 321.4 201.951 322.129 202.113Z" fill="#5D4916"/>
<path d="M302.993 182.198C302.993 182.198 301.954 236.891 302.786 259.158C303.618 282.36 311.719 358.332 311.719 358.332H324.116C324.116 358.332 324.563 283.712 325.156 260.926C325.759 236.09 328.754 182.156 328.754 182.156L302.993 182.198Z" fill="#350000"/>
<path d="M309.338 353.444C309.275 353.444 310.034 358.581 310.034 358.581H325.104L325.52 353.995L309.338 353.444Z" fill="#263238"/>
<path d="M316.42 128.325C319.925 137.779 299.323 148.917 299.323 148.917L290.399 137.477C290.399 137.477 296.4 125.601 303.68 120.255C312.676 113.661 313.747 121.129 316.42 128.325Z" fill="#0EA800"/>
<path opacity="0.4" d="M316.42 128.325C319.925 137.779 299.323 148.917 299.323 148.917L290.399 137.477C290.399 137.477 296.4 125.601 303.68 120.255C312.676 113.661 313.747 121.129 316.42 128.325Z" fill="#5D4916"/>
<path d="M397.144 56.5551C417.874 56.5551 434.678 45.8457 434.678 32.6351C434.678 19.4244 417.874 8.71509 397.144 8.71509C376.415 8.71509 359.611 19.4244 359.611 32.6351C359.611 45.8457 376.415 56.5551 397.144 56.5551Z" fill="#0EA800"/>
<path d="M383.604 44.6782C381.131 44.6703 378.741 43.7911 376.852 42.1953C374.963 40.5996 373.697 38.3892 373.277 35.9526C372.863 33.3134 373.458 30.6151 374.944 28.395C376.43 26.1749 378.697 24.5957 381.295 23.9718C383.427 23.4806 385.659 23.67 387.677 24.5132C389.696 25.3564 391.399 26.8111 392.548 28.6726L416.645 23.7014C417.571 23.4986 418.539 23.6526 419.357 24.1327C420.174 24.6127 420.78 25.3835 421.054 26.291C421.18 26.7682 421.208 27.266 421.135 27.7541C421.062 28.2422 420.891 28.7104 420.631 29.1299C420.371 29.5495 420.028 29.9116 419.623 30.1942C419.219 30.4768 418.761 30.6739 418.277 30.7734L417.653 30.8982C417.561 30.9149 417.473 30.9526 417.397 31.0085C417.322 31.0644 417.26 31.137 417.217 31.2206C417.178 31.3056 417.158 31.3978 417.158 31.491C417.158 31.5843 417.178 31.6765 417.217 31.7614L417.643 32.8638C417.786 33.2212 417.8 33.6171 417.682 33.9835C417.564 34.3499 417.323 34.6638 416.998 34.871C416.743 35.029 416.526 35.2432 416.366 35.4973C416.206 35.7514 416.105 36.0387 416.073 36.3374C416.042 36.6803 415.904 37.0047 415.678 37.2643C415.452 37.5239 415.15 37.7055 414.814 37.783L414.325 37.887C413.987 37.9496 413.637 37.9028 413.326 37.7532C413.016 37.6036 412.761 37.3591 412.599 37.055C412.383 36.6923 412.06 36.406 411.673 36.2359C411.287 36.0659 410.857 36.0207 410.444 36.1065C410.031 36.1924 409.654 36.4051 409.368 36.7149C409.081 37.0248 408.898 37.4163 408.845 37.835C408.816 38.1757 408.679 38.4983 408.455 38.7563C408.231 39.0143 407.93 39.1943 407.597 39.2702L407.108 39.3742C406.769 39.4352 406.42 39.3876 406.11 39.2382C405.8 39.0887 405.545 38.8452 405.381 38.5422C405.226 38.2843 405.016 38.0633 404.766 37.8945C404.517 37.7257 404.233 37.6132 403.936 37.5646C403.536 37.5165 403.167 37.3241 402.899 37.0234C402.631 36.7228 402.482 36.3346 402.48 35.9318V34.7462C402.476 34.6535 402.451 34.5627 402.409 34.4802C402.366 34.3977 402.307 34.3253 402.233 34.268C402.16 34.2107 402.076 34.1699 401.986 34.1484C401.895 34.1268 401.801 34.125 401.71 34.143L394.025 35.7238C393.711 37.8531 392.749 39.834 391.27 41.3972C389.791 42.9603 387.865 44.0297 385.757 44.4598C385.048 44.6047 384.327 44.6779 383.604 44.6782ZM381.524 24.9182C379.165 25.4692 377.103 26.8935 375.752 28.9043C374.401 30.9151 373.862 33.3629 374.244 35.755C374.653 37.9805 375.845 39.9861 377.604 41.409C379.363 42.832 381.574 43.5783 383.836 43.5129C386.098 43.4476 388.261 42.5749 389.936 41.0528C391.61 39.5307 392.684 37.4596 392.964 35.2142V34.8398L401.44 33.1238C401.683 33.065 401.936 33.0611 402.181 33.1123C402.426 33.1635 402.656 33.2687 402.855 33.42C403.055 33.5714 403.218 33.7652 403.333 33.9874C403.447 34.2096 403.511 34.4546 403.52 34.7046V35.8902C403.522 36.0314 403.573 36.1674 403.664 36.2754C403.755 36.3834 403.88 36.4567 404.019 36.483C404.474 36.5482 404.908 36.7159 405.288 36.9736C405.668 37.2313 405.985 37.5721 406.213 37.9702C406.269 38.0825 406.357 38.1748 406.467 38.2344C406.577 38.294 406.703 38.318 406.827 38.303L407.305 38.199C407.427 38.1678 407.535 38.0984 407.613 38.001C407.692 37.9035 407.737 37.7834 407.742 37.6582C407.808 37.0108 408.078 36.401 408.512 35.9169C408.947 35.4329 409.525 35.0996 410.162 34.9653C410.798 34.831 411.461 34.9027 412.055 35.1699C412.648 35.4371 413.141 35.886 413.462 36.4518C413.516 36.5632 413.602 36.6552 413.711 36.7149C413.819 36.7745 413.943 36.7989 414.065 36.7846L414.565 36.6806C414.684 36.6475 414.79 36.5773 414.866 36.48C414.943 36.3828 414.987 36.2636 414.991 36.1398C415.043 35.6832 415.198 35.2444 415.445 34.8569C415.692 34.4694 416.024 34.1434 416.416 33.9038C416.53 33.8212 416.614 33.7026 416.654 33.567C416.693 33.4313 416.686 33.2863 416.634 33.155L416.208 32.0526C416.12 31.8254 416.082 31.5816 416.098 31.3383C416.114 31.0951 416.183 30.8582 416.299 30.6443C416.416 30.4304 416.579 30.2445 416.775 30.0998C416.971 29.955 417.196 29.8548 417.435 29.8062L418.069 29.671C418.413 29.5978 418.738 29.4561 419.025 29.2544C419.312 29.0527 419.556 28.7951 419.742 28.497C419.927 28.1989 420.05 27.8665 420.104 27.5196C420.158 27.1728 420.142 26.8186 420.056 26.4782C419.853 25.8237 419.41 25.2702 418.816 24.9288C418.222 24.5874 417.52 24.4833 416.853 24.6374L392.08 29.7854L391.893 29.463C390.897 27.6912 389.352 26.2914 387.491 25.4752C385.63 24.6591 383.554 24.4709 381.576 24.939L381.524 24.9182ZM383.604 40.8094C382.312 40.8238 381.044 40.4625 379.953 39.7694C378.664 38.9228 377.708 37.655 377.248 36.1823C376.789 34.7096 376.854 33.1231 377.434 31.6933C378.013 30.2635 379.07 29.0788 380.425 28.3413C381.78 27.6038 383.349 27.3592 384.864 27.649C386.38 27.9388 387.748 28.7452 388.735 29.9307C389.722 31.1162 390.268 32.6074 390.278 34.1501C390.289 35.6928 389.764 37.1915 388.794 38.3906C387.823 39.5898 386.467 40.4153 384.956 40.7262C384.513 40.8064 384.064 40.8412 383.614 40.8302L383.604 40.8094ZM383.604 28.527C383.216 28.5292 382.83 28.5675 382.449 28.6414C381.725 28.7958 381.038 29.0913 380.428 29.5111C379.817 29.931 379.296 30.4669 378.892 31.0884C378.489 31.7098 378.212 32.4046 378.078 33.133C377.943 33.8615 377.953 34.6093 378.107 35.3338C378.262 36.0584 378.557 36.7454 378.977 37.3557C379.397 37.966 379.933 38.4877 380.554 38.8909C381.176 39.2941 381.871 39.5709 382.599 39.7056C383.328 39.8403 384.075 39.8302 384.8 39.6758C385.888 39.4494 386.884 38.906 387.663 38.1142C388.442 37.3224 388.97 36.3176 389.179 35.2265C389.388 34.1354 389.269 33.0068 388.838 31.983C388.407 30.9591 387.682 30.0859 386.755 29.4734C385.834 28.8611 384.751 28.5387 383.645 28.5478L383.604 28.527Z" fill="white"/>
<path opacity="0.6" d="M366.6 70.5847C373.412 70.5847 378.934 67.0645 378.934 62.7223C378.934 58.38 373.412 54.8599 366.6 54.8599C359.787 54.8599 354.265 58.38 354.265 62.7223C354.265 67.0645 359.787 70.5847 366.6 70.5847Z" fill="#0EA800"/>
<path opacity="0.3" d="M346.975 73.7983C349.772 73.7983 352.04 72.3549 352.04 70.5743C352.04 68.7938 349.772 67.3503 346.975 67.3503C344.178 67.3503 341.91 68.7938 341.91 70.5743C341.91 72.3549 344.178 73.7983 346.975 73.7983Z" fill="#0EA800"/>
</g>
<defs>
<clipPath id="clip0_52_2870">
<rect width="520" height="387.514" fill="white"/>
</clipPath>
</defs>
</svg>
