<svg width="520" height="480" viewBox="0 0 520 480" fill="none" xmlns="http://www.w3.org/2000/svg">
<g clip-path="url(#clip0_52_2701)">
<path d="M260 480C371.366 480 461.646 473.663 461.646 465.845C461.646 458.027 371.366 451.69 260 451.69C148.634 451.69 58.3545 458.027 58.3545 465.845C58.3545 473.663 148.634 480 260 480Z" fill="#F5F5F5"/>
<path d="M247.936 353.629H47.1225C45.5484 353.626 44.0395 352.872 42.9264 351.534C41.8134 350.196 41.1868 348.382 41.1841 346.489V7.07758C41.2005 5.19579 41.8331 3.39759 42.9447 2.07275C44.0563 0.747909 45.5573 0.00318652 47.1225 0H247.936C249.509 0.00331262 251.017 0.757035 252.128 2.09571C253.24 3.43438 253.864 5.2486 253.864 7.14011V346.489C253.864 348.38 253.24 350.195 252.128 351.533C251.017 352.872 249.509 353.626 247.936 353.629ZM47.1225 0.250092C45.6173 0.253398 44.1746 0.97378 43.1103 2.25347C42.046 3.53315 41.4468 5.26783 41.4441 7.07758V346.489C41.4468 348.299 42.046 350.033 43.1103 351.313C44.1746 352.593 45.6173 353.313 47.1225 353.316H247.936C249.44 353.313 250.882 352.592 251.945 351.312C253.007 350.032 253.604 348.297 253.604 346.489V7.07758C253.604 5.26898 253.007 3.53428 251.945 2.25424C250.882 0.974191 249.44 0.253405 247.936 0.250092H47.1225Z" fill="#E6E6E6"/>
<path d="M472.888 353.629H272.064C270.491 353.626 268.983 352.872 267.871 351.533C266.76 350.195 266.136 348.38 266.136 346.489V7.07758C266.149 5.19693 266.78 3.39872 267.89 2.07353C269 0.74835 270.5 0.00322166 272.064 0H472.888C474.452 0.00322166 475.952 0.74835 477.062 2.07353C478.172 3.39872 478.802 5.19693 478.816 7.07758V346.489C478.816 348.38 478.192 350.195 477.08 351.533C475.969 352.872 474.461 353.626 472.888 353.629ZM272.064 0.250092C270.56 0.253405 269.118 0.974191 268.055 2.25424C266.993 3.53428 266.396 5.26898 266.396 7.07758V346.489C266.396 348.297 266.993 350.032 268.055 351.312C269.118 352.592 270.56 353.313 272.064 353.316H472.888C474.394 353.313 475.838 352.593 476.904 351.314C477.97 350.034 478.571 348.3 478.577 346.489V7.07758C478.571 5.26669 477.97 3.53203 476.904 2.2527C475.838 0.973367 474.394 0.253385 472.888 0.250092H272.064Z" fill="#E6E6E6"/>
<path d="M89.3774 417.002H46.519V417.315H89.3774V417.002Z" fill="#E0E0E0"/>
<path d="M176.738 414.501H133.754V414.814H176.738V414.501Z" fill="#E0E0E0"/>
<path d="M232.669 414.501H222.269V414.814H232.669V414.501Z" fill="#E0E0E0"/>
<path d="M128.721 425.18H80.6206V425.493H128.721V425.18Z" fill="#E0E0E0"/>
<path d="M295.089 416.84H272.625V417.152H295.089V416.84Z" fill="#E0E0E0"/>
<path d="M333.393 416.84H304.346V417.152H333.393V416.84Z" fill="#E0E0E0"/>
<path d="M473.481 422.129H408.543V422.442H473.481V422.129Z" fill="#E0E0E0"/>
<path d="M520 404.735H0V405.048H520V404.735Z" fill="#EBEBEB"/>
<path opacity="0.8" d="M348.223 25.947L345.634 68.8126C345.546 70.2652 345.034 71.6337 344.188 72.6765C343.706 73.2944 343.125 73.7882 342.479 74.1278C341.834 74.4675 341.138 74.6459 340.434 74.6522H311.844C311.219 74.6599 310.6 74.511 310.026 74.2148C309.452 73.9187 308.936 73.482 308.51 72.9325C308.085 72.383 307.759 71.7328 307.554 71.0234C307.349 70.3141 307.269 69.5611 307.32 68.8126L309.92 25.947C310.026 24.3697 310.618 22.8969 311.58 21.8168C312.542 20.7367 313.804 20.1271 315.12 20.1073H343.71C344.335 20.0956 344.955 20.242 345.53 20.5369C346.105 20.8318 346.622 21.2687 347.047 21.8193C347.473 22.3699 347.797 23.0218 348 23.7329C348.203 24.444 348.279 25.1983 348.223 25.947Z" fill="#E0E0E0"/>
<path d="M335.62 47.2637C336.704 41.0313 334.179 35.1223 329.98 34.0656C325.78 33.0089 321.496 37.2046 320.411 43.4369C319.327 49.6693 321.852 55.5783 326.051 56.635C330.251 57.6918 334.535 53.4961 335.62 47.2637Z" fill="white"/>
<path d="M339.435 71.7011H313.269C311.605 71.7011 310.461 70.7382 310.419 69.4002C310.357 67.4495 318.843 59.009 326.893 59.7467H327.08C332.025 59.9573 336.768 62.1592 340.548 65.999C344.438 69.6753 340.766 71.7011 339.435 71.7011Z" fill="white"/>
<path d="M200.72 73.0891C197.985 73.0761 195.353 71.8417 193.333 69.6257C191.313 67.4096 190.05 64.37 189.789 61.0972C189.668 59.5429 189.817 57.9752 190.227 56.4939C190.637 55.0126 191.299 53.65 192.17 52.4928C193.042 51.3356 194.104 50.409 195.289 49.772C196.475 49.135 197.757 48.8015 199.056 48.7927C201.79 48.8057 204.423 50.0401 206.443 52.2561C208.463 54.4722 209.726 57.5118 209.986 60.7846C210.107 62.3389 209.958 63.9066 209.548 65.3879C209.139 66.8692 208.477 68.2318 207.605 69.389C206.734 70.5462 205.672 71.4728 204.486 72.1098C203.301 72.7468 202.018 73.0803 200.72 73.0891ZM199.503 55.2451C198.893 55.2451 198.291 55.3985 197.733 55.6954C197.176 55.9923 196.677 56.4263 196.267 56.9692C195.858 57.5122 195.547 58.1522 195.356 58.8481C195.164 59.5439 195.096 60.2802 195.156 61.0097C195.284 62.5423 195.878 63.9641 196.824 65.0025C197.77 66.041 199.002 66.6229 200.283 66.6367C200.892 66.635 201.493 66.4803 202.049 66.1826C202.606 65.8849 203.104 65.4507 203.512 64.908C203.92 64.3652 204.23 63.7258 204.421 63.0308C204.611 62.3358 204.679 61.6005 204.62 60.8721C204.492 59.3459 203.903 57.9292 202.963 56.8917C202.023 55.8541 200.799 55.2681 199.524 55.2451H199.503Z" fill="#E0E0E0"/>
<path d="M201.24 54.3072L197.413 54.3698L195.375 24.709L199.212 24.6589L201.24 54.3072Z" fill="#E0E0E0"/>
<path d="M202.842 25.9845L195.645 26.0971L195.333 21.4829L202.53 21.3704L202.842 25.9845Z" fill="#E0E0E0"/>
<path d="M203.258 31.9115L196.487 32.0116L196.175 27.3974L202.935 27.2974L203.258 31.9115Z" fill="#E0E0E0"/>
<path d="M203.84 40.2648L197.933 40.3523L197.61 35.7506L203.518 35.6631L203.84 40.2648Z" fill="#E0E0E0"/>
<path d="M82.4823 325.169C82.5044 325.542 82.5426 325.913 82.5967 326.282C82.9551 328.68 83.9514 330.874 85.4359 332.534C87.1221 334.458 89.3514 335.543 91.6759 335.572H179.545C181.628 335.613 183.639 334.663 185.142 332.931C186.646 331.198 187.52 328.822 187.574 326.319C187.598 324.836 187.377 323.362 186.925 321.982C186.473 320.601 185.798 319.342 184.94 318.276C184.082 317.211 183.057 316.36 181.924 315.772C180.791 315.184 179.573 314.872 178.339 314.852H90.4799C89.3756 314.836 88.2805 315.097 87.265 315.618C86.2495 316.14 85.3359 316.912 84.5829 317.883C83.8299 318.854 83.254 320.004 82.8923 321.259C82.5305 322.514 82.3909 323.845 82.4823 325.169Z" fill="#F0F0F0"/>
<path d="M187.606 326.281C187.599 326.617 187.571 326.951 187.522 327.282C187.269 324.553 186.194 322.03 184.501 320.187C182.808 318.345 180.612 317.31 178.329 317.278L84.8848 317.453C86.3944 315.714 88.41 314.754 90.5008 314.777H178.37C179.611 314.766 180.842 315.058 181.986 315.634C183.131 316.211 184.166 317.062 185.03 318.134C185.893 319.206 186.566 320.477 187.009 321.871C187.452 323.265 187.655 324.753 187.606 326.244V326.281Z" fill="#E0E0E0"/>
<path d="M172.567 319.804L172.858 324.806L176.8 323.043L177.694 325.544L173.68 327.194L176.488 331.433L174.72 333.034L171.985 328.632L169.801 333.034L167.856 331.433L170.134 327.194L165.974 325.606L166.566 323.105L170.726 324.806L170.435 319.804H172.567Z" fill="white"/>
<path d="M148.533 319.804L148.834 324.806L152.766 323.043L153.66 325.544L149.635 327.132L152.454 331.371L150.634 332.972L147.898 328.57L145.714 332.972L143.77 331.371L146.047 327.132L141.887 325.544L142.49 323.043L146.65 324.744L146.359 319.742L148.533 319.804Z" fill="white"/>
<path d="M124.509 319.804L124.8 324.806L128.742 323.043L129.636 325.544L125.611 327.132L128.419 331.371L126.599 332.972L123.864 328.57L121.68 332.972L119.735 331.371L122.013 327.132L117.853 325.544L118.456 323.043L122.616 324.744L122.325 319.742L124.509 319.804Z" fill="white"/>
<path d="M100.475 319.804L100.766 324.806L104.707 323.043L105.602 325.544L101.577 327.132L104.385 331.371L102.575 332.971L99.8401 328.632L97.6457 333.034L95.6801 331.433L97.9681 327.194L93.8081 325.606L94.4113 323.105L98.5713 324.806L98.2801 319.804H100.475Z" fill="white"/>
<path d="M158.85 311.164H154.752L154.762 309.913H158.86L158.85 311.164Z" fill="#E0E0E0"/>
<path d="M176.457 311.164H163.093L163.114 309.913H176.478L176.457 311.164Z" fill="#E0E0E0"/>
<g opacity="0.8">
<path d="M280.155 304.861L296.733 335.535L351.395 269.811C351.449 269.754 351.492 269.686 351.523 269.609C351.554 269.532 351.573 269.448 351.577 269.363C351.581 269.278 351.572 269.192 351.549 269.111C351.525 269.03 351.489 268.956 351.442 268.892C351.395 268.828 351.338 268.776 351.274 268.738C351.21 268.701 351.141 268.679 351.07 268.673C350.999 268.668 350.927 268.68 350.86 268.708C350.793 268.735 350.731 268.779 350.678 268.836L298.584 317.953L288.746 298.884L280.155 304.861Z" fill="#E0E0E0"/>
</g>
<path opacity="0.1" d="M270.254 86.5566L231.005 263.071H244.202L283.015 86.5566H270.254Z" fill="white"/>
<path opacity="0.1" d="M290.628 86.5566L251.378 263.071H277.566L316.378 86.5566H290.628Z" fill="white"/>
<path d="M431.922 245.815L440.242 104.138C440.32 103.049 440.206 101.953 439.909 100.921C439.611 99.8887 439.137 98.9429 438.516 98.1449C437.896 97.3468 437.143 96.7144 436.306 96.2885C435.469 95.8626 434.568 95.6527 433.659 95.6724L228.009 95.885C226.096 95.9167 224.261 96.8018 222.861 98.3683C221.46 99.9349 220.593 102.071 220.428 104.363L212.16 246.052C212.084 247.141 212.199 248.238 212.498 249.27C212.796 250.302 213.271 251.248 213.893 252.046C214.514 252.844 215.268 253.476 216.105 253.902C216.942 254.327 217.845 254.537 218.753 254.518L424.32 254.305C426.239 254.282 428.082 253.399 429.488 251.829C430.894 250.258 431.762 248.114 431.922 245.815Z" fill="#0EA800"/>
<path d="M429.281 242.726L437.601 101.049C437.68 99.9604 437.567 98.8636 437.27 97.8304C436.974 96.7971 436.5 95.8505 435.879 95.052C435.258 94.2536 434.504 93.6212 433.666 93.1959C432.829 92.7707 431.926 92.5621 431.017 92.5838L225.368 92.7964C223.455 92.8256 221.62 93.7101 220.221 95.2775C218.821 96.8448 217.957 98.9828 217.797 101.274L209.477 242.964C209.399 244.052 209.513 245.148 209.81 246.181C210.108 247.213 210.582 248.159 211.202 248.957C211.823 249.755 212.576 250.387 213.413 250.813C214.25 251.239 215.151 251.449 216.06 251.429L421.699 251.217C423.614 251.187 425.452 250.302 426.854 248.732C428.255 247.162 429.121 245.021 429.281 242.726Z" fill="#0EA800"/>
<path opacity="0.6" d="M423.831 244.827C423.408 245.294 422.855 245.552 422.281 245.552L216.632 245.765C216.302 245.76 215.976 245.675 215.674 245.515C215.372 245.355 215.1 245.123 214.875 244.834C214.649 244.544 214.475 244.202 214.362 243.829C214.249 243.456 214.201 243.06 214.219 242.663L222.539 100.987C222.571 100.299 222.825 99.653 223.246 99.1861C223.666 98.7138 224.221 98.4541 224.796 98.4609L430.445 98.2483C430.776 98.2527 431.101 98.3375 431.403 98.4975C431.705 98.6575 431.977 98.8894 432.203 99.1792C432.428 99.469 432.603 99.8106 432.715 100.184C432.828 100.557 432.877 100.953 432.858 101.349L424.538 243.026C424.501 243.712 424.248 244.356 423.831 244.827Z" fill="white"/>
<path d="M355.43 166.936H283.244C282.608 166.949 281.997 167.238 281.525 167.751C281.052 168.264 280.751 168.965 280.675 169.724L279.562 182.416C279.527 182.769 279.554 183.127 279.643 183.466C279.731 183.805 279.879 184.117 280.076 184.382C280.273 184.647 280.514 184.859 280.784 185.003C281.054 185.147 281.347 185.22 281.642 185.218H353.829C354.467 185.202 355.079 184.91 355.553 184.396C356.027 183.881 356.331 183.178 356.408 182.416L357.51 169.724C357.544 169.373 357.516 169.016 357.426 168.679C357.337 168.341 357.189 168.031 356.993 167.767C356.796 167.503 356.555 167.293 356.286 167.15C356.016 167.006 355.725 166.933 355.43 166.936Z" fill="white"/>
<path d="M291.834 218.767H280.571C279.933 218.783 279.32 219.075 278.846 219.589C278.373 220.104 278.069 220.806 277.992 221.568L276.889 234.261C276.855 234.612 276.884 234.969 276.973 235.306C277.063 235.644 277.21 235.954 277.407 236.218C277.604 236.482 277.845 236.692 278.114 236.835C278.383 236.979 278.675 237.051 278.969 237.049H290.233C290.869 237.034 291.48 236.744 291.954 236.232C292.427 235.72 292.732 235.02 292.812 234.261L293.914 221.568C293.95 221.216 293.922 220.858 293.834 220.519C293.745 220.18 293.597 219.868 293.401 219.603C293.204 219.338 292.962 219.126 292.692 218.982C292.422 218.838 292.13 218.765 291.834 218.767Z" fill="white"/>
<path d="M311.282 218.767H300.019C299.381 218.783 298.769 219.075 298.295 219.589C297.821 220.104 297.517 220.806 297.44 221.568L296.338 234.261C296.304 234.612 296.332 234.969 296.422 235.306C296.511 235.644 296.659 235.954 296.855 236.218C297.052 236.482 297.293 236.692 297.562 236.835C297.831 236.979 298.123 237.051 298.418 237.049H309.681C310.317 237.034 310.928 236.744 311.402 236.232C311.876 235.72 312.18 235.02 312.26 234.261L313.362 221.568C313.398 221.216 313.37 220.858 313.282 220.519C313.193 220.18 313.046 219.868 312.849 219.603C312.652 219.338 312.411 219.126 312.141 218.982C311.87 218.838 311.578 218.765 311.282 218.767Z" fill="white"/>
<path d="M330.72 218.767H319.467C318.829 218.783 318.216 219.075 317.742 219.589C317.269 220.104 316.965 220.806 316.888 221.568L315.785 234.261C315.751 234.612 315.78 234.969 315.869 235.306C315.959 235.644 316.106 235.954 316.303 236.218C316.5 236.482 316.741 236.692 317.01 236.835C317.279 236.979 317.571 237.051 317.865 237.049H329.128C329.765 237.034 330.376 236.744 330.85 236.232C331.323 235.72 331.628 235.02 331.708 234.261L332.8 221.568C332.835 221.216 332.808 220.858 332.719 220.519C332.631 220.18 332.483 219.868 332.286 219.603C332.089 219.338 331.848 219.126 331.578 218.982C331.308 218.838 331.015 218.765 330.72 218.767Z" fill="white"/>
<path d="M350.178 218.767H338.915C338.277 218.783 337.665 219.075 337.191 219.589C336.717 220.104 336.413 220.806 336.336 221.568L335.234 234.261C335.2 234.612 335.228 234.969 335.318 235.306C335.407 235.644 335.555 235.954 335.751 236.218C335.948 236.482 336.189 236.692 336.458 236.835C336.727 236.979 337.019 237.051 337.314 237.049H348.577C349.213 237.034 349.824 236.744 350.298 236.232C350.772 235.72 351.076 235.02 351.156 234.261L352.258 221.568C352.294 221.216 352.266 220.858 352.178 220.519C352.089 220.18 351.942 219.868 351.745 219.603C351.548 219.338 351.307 219.126 351.036 218.982C350.766 218.838 350.474 218.765 350.178 218.767Z" fill="white"/>
<path d="M292.302 210.127H337.448C338.533 210.103 339.575 209.61 340.381 208.737C341.188 207.864 341.705 206.67 341.837 205.375L342.388 199.123C342.453 198.52 342.409 197.907 342.258 197.326C342.107 196.746 341.853 196.212 341.514 195.76C341.175 195.309 340.759 194.951 340.294 194.711C339.829 194.471 339.327 194.355 338.821 194.371H293.675C292.59 194.394 291.548 194.888 290.742 195.761C289.936 196.634 289.419 197.828 289.286 199.123L288.735 205.375C288.672 205.978 288.718 206.59 288.869 207.169C289.021 207.749 289.275 208.282 289.613 208.733C289.952 209.184 290.367 209.542 290.831 209.783C291.295 210.023 291.797 210.141 292.302 210.127Z" stroke="#0EA800" stroke-linecap="round" stroke-linejoin="round"/>
<path d="M358.03 140.501H285.844C285.207 140.52 284.598 140.813 284.126 141.327C283.654 141.841 283.352 142.542 283.275 143.302L282.162 155.994C282.128 156.346 282.157 156.703 282.246 157.04C282.336 157.377 282.483 157.688 282.68 157.952C282.877 158.215 283.118 158.426 283.387 158.569C283.656 158.712 283.948 158.785 284.242 158.783H356.418C357.055 158.768 357.666 158.478 358.14 157.966C358.613 157.454 358.918 156.754 358.997 155.994L360.1 143.302C360.135 142.951 360.108 142.594 360.02 142.256C359.932 141.918 359.786 141.606 359.59 141.341C359.394 141.076 359.154 140.865 358.885 140.72C358.616 140.575 358.325 140.5 358.03 140.501Z" fill="white"/>
<path d="M292.022 176.077C292.065 175.685 292.038 175.286 291.941 174.908C291.844 174.53 291.681 174.182 291.461 173.887C291.242 173.592 290.972 173.358 290.67 173.201C290.368 173.043 290.042 172.967 289.713 172.976C289.006 172.996 288.329 173.32 287.805 173.889C287.28 174.458 286.942 175.234 286.853 176.077C286.812 176.468 286.843 176.866 286.941 177.242C287.04 177.619 287.205 177.965 287.425 178.258C287.645 178.551 287.915 178.784 288.216 178.941C288.518 179.097 288.844 179.174 289.172 179.165C289.876 179.148 290.552 178.826 291.075 178.259C291.598 177.692 291.934 176.917 292.022 176.077Z" fill="#0EA800"/>
<path d="M299.967 176.077C300.009 175.684 299.98 175.285 299.882 174.907C299.784 174.529 299.619 174.181 299.399 173.887C299.179 173.592 298.908 173.358 298.606 173.201C298.304 173.044 297.977 172.967 297.648 172.976C296.942 172.994 296.265 173.317 295.741 173.887C295.218 174.457 294.883 175.234 294.798 176.077C294.756 176.468 294.785 176.865 294.882 177.242C294.98 177.618 295.144 177.965 295.363 178.258C295.582 178.552 295.851 178.784 296.152 178.941C296.453 179.098 296.779 179.174 297.107 179.166C297.812 179.148 298.489 178.827 299.014 178.26C299.539 177.693 299.877 176.918 299.967 176.077Z" fill="#0EA800"/>
<path d="M307.902 176.077C307.944 175.684 307.915 175.285 307.817 174.907C307.719 174.529 307.555 174.181 307.334 173.887C307.114 173.592 306.844 173.358 306.542 173.201C306.239 173.044 305.912 172.967 305.583 172.976C304.877 172.994 304.201 173.317 303.677 173.887C303.154 174.457 302.819 175.234 302.734 176.077C302.693 176.469 302.724 176.866 302.822 177.243C302.921 177.619 303.086 177.966 303.306 178.259C303.526 178.552 303.796 178.784 304.097 178.941C304.399 179.097 304.725 179.174 305.053 179.166C305.757 179.148 306.433 178.826 306.956 178.259C307.479 177.692 307.815 176.917 307.902 176.077Z" fill="#0EA800"/>
<path d="M315.838 176.077C315.881 175.685 315.854 175.286 315.757 174.908C315.66 174.53 315.497 174.182 315.277 173.887C315.058 173.592 314.788 173.358 314.486 173.201C314.184 173.043 313.858 172.967 313.529 172.976C312.823 172.993 312.146 173.317 311.623 173.887C311.099 174.456 310.764 175.234 310.679 176.077C310.636 176.473 310.666 176.875 310.767 177.256C310.867 177.636 311.036 177.985 311.261 178.279C311.486 178.572 311.762 178.803 312.07 178.954C312.377 179.105 312.708 179.173 313.04 179.153C313.734 179.121 314.396 178.795 314.908 178.231C315.42 177.668 315.75 176.905 315.838 176.077Z" fill="#0EA800"/>
<path d="M323.939 176.077C323.981 175.684 323.952 175.285 323.854 174.907C323.756 174.529 323.591 174.181 323.371 173.887C323.151 173.592 322.88 173.358 322.578 173.201C322.276 173.044 321.949 172.967 321.62 172.976C320.914 172.994 320.237 173.317 319.714 173.887C319.19 174.457 318.855 175.234 318.77 176.077C318.728 176.468 318.757 176.865 318.854 177.242C318.952 177.618 319.116 177.965 319.335 178.258C319.554 178.552 319.824 178.784 320.125 178.941C320.426 179.098 320.751 179.174 321.079 179.166C321.785 179.148 322.461 178.827 322.986 178.26C323.511 177.693 323.849 176.918 323.939 176.077Z" fill="#0EA800"/>
<path d="M294.622 149.642C294.665 149.251 294.638 148.852 294.541 148.475C294.444 148.098 294.28 147.75 294.061 147.456C293.841 147.163 293.571 146.93 293.269 146.774C292.968 146.618 292.641 146.543 292.313 146.554C291.608 146.571 290.933 146.893 290.41 147.46C289.886 148.027 289.55 148.802 289.463 149.642C289.419 150.034 289.447 150.432 289.544 150.809C289.64 151.187 289.804 151.534 290.024 151.828C290.243 152.122 290.514 152.355 290.815 152.511C291.117 152.666 291.444 152.742 291.772 152.731C292.477 152.716 293.154 152.395 293.677 151.827C294.201 151.26 294.536 150.484 294.622 149.642Z" fill="#0EA800"/>
<path d="M302.567 149.642C302.607 149.25 302.577 148.853 302.478 148.476C302.379 148.1 302.214 147.753 301.994 147.46C301.774 147.167 301.505 146.935 301.203 146.778C300.902 146.622 300.576 146.545 300.248 146.554C299.551 146.583 298.885 146.91 298.37 147.476C297.856 148.042 297.526 148.81 297.44 149.642C297.398 150.033 297.426 150.431 297.524 150.807C297.621 151.184 297.785 151.53 298.005 151.824C298.224 152.117 298.493 152.35 298.794 152.506C299.095 152.663 299.421 152.74 299.748 152.731C300.447 152.705 301.115 152.379 301.632 151.812C302.149 151.246 302.48 150.476 302.567 149.642Z" fill="#0EA800"/>
<path d="M310.502 149.642C310.544 149.251 310.515 148.854 310.418 148.477C310.32 148.101 310.156 147.754 309.937 147.461C309.718 147.167 309.449 146.934 309.148 146.778C308.847 146.621 308.521 146.545 308.193 146.553C307.488 146.571 306.811 146.892 306.286 147.459C305.761 148.026 305.423 148.8 305.333 149.642C305.291 150.034 305.32 150.433 305.418 150.81C305.516 151.187 305.681 151.535 305.902 151.828C306.122 152.122 306.393 152.354 306.695 152.51C306.997 152.666 307.324 152.741 307.652 152.731C308.357 152.716 309.034 152.395 309.558 151.827C310.081 151.26 310.417 150.484 310.502 149.642Z" fill="#0EA800"/>
<path d="M318.437 149.642C318.481 149.251 318.454 148.852 318.357 148.475C318.26 148.098 318.096 147.75 317.877 147.456C317.657 147.163 317.387 146.93 317.085 146.774C316.783 146.618 316.457 146.543 316.129 146.554C315.424 146.571 314.749 146.893 314.226 147.46C313.702 148.027 313.366 148.802 313.279 149.642C313.235 150.034 313.263 150.432 313.359 150.809C313.456 151.187 313.62 151.534 313.84 151.828C314.059 152.122 314.329 152.355 314.631 152.511C314.933 152.666 315.259 152.742 315.588 152.731C316.293 152.716 316.97 152.395 317.493 151.827C318.017 151.26 318.352 150.484 318.437 149.642Z" fill="#0EA800"/>
<path d="M326.383 149.642C326.423 149.25 326.393 148.853 326.294 148.476C326.196 148.1 326.031 147.753 325.811 147.46C325.591 147.167 325.321 146.935 325.019 146.778C324.718 146.622 324.392 146.545 324.064 146.554C323.359 146.571 322.684 146.893 322.161 147.46C321.637 148.027 321.301 148.802 321.214 149.642C321.172 150.034 321.201 150.433 321.299 150.81C321.397 151.188 321.562 151.535 321.782 151.828C322.003 152.122 322.273 152.355 322.576 152.51C322.878 152.666 323.205 152.741 323.533 152.731C324.238 152.716 324.915 152.395 325.439 151.827C325.962 151.26 326.298 150.484 326.383 149.642Z" fill="#0EA800"/>
<path d="M334.318 149.642C334.36 149.251 334.332 148.854 334.234 148.477C334.137 148.101 333.973 147.754 333.754 147.461C333.534 147.167 333.265 146.934 332.964 146.778C332.663 146.621 332.338 146.545 332.01 146.553C331.304 146.571 330.627 146.892 330.102 147.459C329.577 148.026 329.239 148.8 329.15 149.642C329.107 150.034 329.136 150.433 329.235 150.81C329.333 151.187 329.498 151.535 329.718 151.828C329.938 152.122 330.209 152.354 330.511 152.51C330.813 152.666 331.14 152.741 331.469 152.731C332.174 152.716 332.851 152.395 333.374 151.827C333.898 151.26 334.233 150.484 334.318 149.642Z" fill="#0EA800"/>
<path d="M327.6 112.516L327.038 118.931C326.999 119.21 326.881 119.465 326.706 119.653C326.53 119.842 326.306 119.953 326.071 119.969C325.96 119.974 325.85 119.949 325.748 119.898C325.645 119.846 325.554 119.768 325.48 119.669C325.405 119.57 325.35 119.452 325.317 119.325C325.285 119.197 325.276 119.063 325.291 118.931L325.853 112.516C325.902 112.041 325.866 111.559 325.746 111.102C325.627 110.646 325.427 110.225 325.161 109.869C324.895 109.514 324.568 109.231 324.203 109.04C323.838 108.85 323.443 108.756 323.045 108.765H321.121C320.266 108.789 319.446 109.181 318.811 109.869C318.176 110.557 317.767 111.496 317.657 112.516L317.169 118.468H315.421L315.91 112.516C316.075 110.925 316.712 109.458 317.703 108.386C318.695 107.313 319.974 106.706 321.308 106.676H323.221C323.842 106.658 324.459 106.801 325.03 107.096C325.601 107.391 326.112 107.831 326.528 108.385C326.944 108.94 327.255 109.597 327.44 110.31C327.625 111.023 327.68 111.775 327.6 112.516Z" fill="#0EA800"/>
<path d="M327.6 118.693L326.508 131.198C326.466 131.586 326.309 131.943 326.067 132.205C325.825 132.466 325.513 132.615 325.187 132.623H314.787C314.637 132.625 314.489 132.588 314.352 132.515C314.216 132.441 314.094 132.333 313.995 132.198C313.896 132.062 313.823 131.903 313.78 131.73C313.737 131.558 313.726 131.376 313.747 131.198L314.839 118.693C314.859 118.436 314.93 118.189 315.046 117.971C315.162 117.754 315.319 117.573 315.505 117.443C315.703 117.303 315.93 117.23 316.16 117.23H326.56C326.773 117.228 326.982 117.297 327.163 117.43C327.33 117.567 327.46 117.759 327.538 117.984C327.615 118.208 327.637 118.455 327.6 118.693Z" fill="#0EA800"/>
<path d="M409.042 91.7585L383.625 91.9336" stroke="#0EA800" stroke-linecap="round" stroke-linejoin="round"/>
<path d="M422.895 91.6709L413.91 91.7209" stroke="#0EA800" stroke-linecap="round" stroke-linejoin="round"/>
<g opacity="0.3">
<path d="M244.504 98.4236H273.624L244.015 245.765H220.542C219.865 245.749 219.2 245.549 218.596 245.18C217.992 244.811 217.465 244.283 217.055 243.634C216.645 242.986 216.362 242.235 216.228 241.437C216.093 240.638 216.11 239.814 216.278 239.025L244.504 98.4236Z" fill="white"/>
<path d="M286.52 98.4236H298.865L269.287 245.765H256.942L286.52 98.4236Z" fill="white"/>
</g>
<path d="M90.1159 52.4317H96.0231C94.6392 52.4081 93.2666 52.7335 91.9937 53.3871C90.7209 54.0406 89.5762 55.0078 88.6335 56.2261C87.6907 57.4445 86.9709 58.887 86.5205 60.4605C86.07 62.034 85.8989 63.7035 86.0183 65.3614L98.5503 280.815C98.7879 284.304 100.098 287.561 102.224 289.951C104.351 292.342 107.142 293.694 110.053 293.745H104.156C101.244 293.694 98.4517 292.343 96.3234 289.952C94.1951 287.562 92.8831 284.305 92.6431 280.815L80.0799 65.3614C79.9602 63.7003 80.1321 62.0275 80.5844 60.4514C81.0367 58.8753 81.7594 57.431 82.7055 56.212C83.6516 54.9931 84.8002 54.0267 86.0767 53.3755C87.3533 52.7243 88.7294 52.4027 90.1159 52.4317Z" fill="#0EA800"/>
<path d="M90.116 52.4316H96.0232C94.6394 52.4079 93.2667 52.7334 91.9939 53.387C90.7211 54.0405 89.5764 55.0077 88.6336 56.226C87.6909 57.4444 86.9711 58.8869 86.5206 60.4604C86.0702 62.0339 85.8991 63.7034 86.0184 65.3613L98.5504 280.815C98.788 284.304 100.098 287.561 102.224 289.951C104.351 292.342 107.142 293.694 110.053 293.745H104.156C98.2176 293.745 92.2272 287.955 91.8112 280.815L79.2792 65.3613C78.8632 58.2212 84.1776 52.4316 90.116 52.4316Z" fill="#0EA800"/>
<path d="M105.913 293.757H178.193C179.581 293.788 180.958 293.468 182.236 292.817C183.514 292.167 184.664 291.201 185.611 289.982C186.558 288.762 187.282 287.318 187.735 285.741C188.187 284.164 188.36 282.49 188.24 280.827L175.666 65.3614C175.431 61.8684 174.121 58.6064 171.992 56.213C169.863 53.8196 167.068 52.4669 164.153 52.4192H91.8839C90.4991 52.3953 89.1254 52.7211 87.8519 53.3754C86.5783 54.0297 85.433 54.998 84.4901 56.2178C83.5472 57.4375 82.8276 58.8816 82.3779 60.4566C81.9281 62.0316 81.7582 63.7025 81.8791 65.3614L94.3591 280.815C94.5974 284.315 95.9142 287.583 98.0515 289.977C100.189 292.371 102.993 293.719 105.913 293.757Z" fill="#0EA800"/>
<g opacity="0.6">
<path d="M163.966 56.608C165.991 56.6465 167.932 57.5897 169.41 59.2539C170.888 60.9182 171.799 63.1844 171.964 65.6113L184.496 281.065C184.581 282.164 184.472 283.273 184.176 284.318C183.88 285.364 183.404 286.322 182.778 287.131C182.153 287.94 181.392 288.58 180.547 289.011C179.701 289.442 178.789 289.653 177.871 289.63H105.601C103.575 289.592 101.634 288.65 100.154 286.986C98.6735 285.322 97.761 283.055 97.5935 280.627L85.1135 65.1736C85.0288 64.0794 85.1365 62.9761 85.4294 61.9351C85.7223 60.8942 86.1939 59.9389 86.8137 59.1312C87.4334 58.3236 88.1875 57.6816 89.0269 57.2469C89.8663 56.8122 90.7724 56.5945 91.6863 56.608H163.966Z" fill="white"/>
</g>
<g opacity="0.3">
<path d="M143.52 289.605H114.722L138.497 56.608H161.699C162.701 56.6035 163.693 56.8477 164.613 57.3254C165.532 57.8031 166.36 58.5039 167.045 59.384L143.52 289.605Z" fill="white"/>
<path d="M109.554 289.605H103.064L126.838 56.583H133.328L109.554 289.605Z" fill="white"/>
</g>
<path d="M107.307 158.395H159.661" stroke="white" stroke-linecap="round" stroke-linejoin="round"/>
<path d="M114.057 167.711H155.064" stroke="white" stroke-linecap="round" stroke-linejoin="round"/>
<path d="M108.867 115.48L108.94 117.981H107.598L107.526 115.48L105.144 110.99H106.569L108.212 114.092L109.668 110.99H110.989L108.867 115.48Z" fill="#0EA800"/>
<path d="M111.041 114.454C111.023 113.963 111.093 113.472 111.245 113.015C111.397 112.559 111.629 112.146 111.924 111.806C112.219 111.465 112.571 111.204 112.957 111.039C113.343 110.875 113.753 110.811 114.161 110.853C114.573 110.828 114.986 110.901 115.374 111.069C115.763 111.237 116.12 111.496 116.424 111.831C116.729 112.166 116.976 112.57 117.149 113.02C117.323 113.471 117.421 113.958 117.437 114.454C117.456 114.947 117.388 115.439 117.236 115.897C117.084 116.355 116.853 116.769 116.558 117.111C116.262 117.453 115.91 117.715 115.523 117.88C115.137 118.046 114.725 118.109 114.317 118.068C113.904 118.093 113.49 118.019 113.101 117.851C112.712 117.682 112.354 117.422 112.05 117.086C111.745 116.749 111.499 116.343 111.325 115.892C111.152 115.44 111.055 114.951 111.041 114.454ZM116.033 114.454C116.034 114.158 115.986 113.865 115.892 113.592C115.797 113.318 115.658 113.07 115.483 112.863C115.307 112.655 115.099 112.492 114.87 112.383C114.641 112.274 114.396 112.222 114.15 112.228C113.909 112.216 113.669 112.266 113.445 112.376C113.221 112.485 113.02 112.651 112.854 112.862C112.689 113.073 112.563 113.324 112.485 113.599C112.407 113.874 112.379 114.165 112.403 114.454C112.4 114.751 112.447 115.046 112.541 115.321C112.635 115.595 112.774 115.845 112.949 116.053C113.125 116.262 113.334 116.426 113.563 116.536C113.793 116.646 114.039 116.699 114.286 116.692C114.527 116.701 114.767 116.647 114.99 116.536C115.212 116.425 115.413 116.258 115.578 116.046C115.743 115.834 115.869 115.583 115.947 115.309C116.026 115.034 116.055 114.743 116.033 114.454Z" fill="#0EA800"/>
<path d="M118.362 114.879L118.258 110.965H119.6L119.704 114.817C119.704 116.142 120.245 116.692 121.056 116.692C121.867 116.692 122.325 116.142 122.293 114.817L122.179 110.965H123.5L123.614 114.879C123.669 115.3 123.642 115.73 123.537 116.136C123.431 116.543 123.249 116.915 123.005 117.223C122.76 117.531 122.46 117.768 122.128 117.914C121.795 118.061 121.439 118.113 121.087 118.068C120.727 118.107 120.365 118.051 120.025 117.906C119.685 117.761 119.374 117.529 119.116 117.226C118.857 116.923 118.656 116.557 118.526 116.152C118.396 115.747 118.34 115.313 118.362 114.879Z" fill="#0EA800"/>
<path d="M128.731 117.955L127.556 116.005H126.318L126.381 117.955H125.039L124.831 110.965H127.348C128.897 110.965 129.896 111.941 129.937 113.466C129.971 113.931 129.879 114.396 129.675 114.793C129.47 115.19 129.165 115.496 128.804 115.667L130.177 117.918L128.731 117.955ZM127.306 112.291H126.266L126.339 114.717H127.379C128.201 114.717 128.596 114.267 128.575 113.466C128.554 112.666 128.128 112.291 127.306 112.291Z" fill="#0EA800"/>
<path d="M133.016 114.454C132.994 113.97 133.058 113.486 133.204 113.034C133.35 112.582 133.573 112.172 133.86 111.832C134.147 111.492 134.491 111.228 134.869 111.06C135.247 110.891 135.65 110.82 136.053 110.853C136.508 110.836 136.961 110.939 137.379 111.155C137.798 111.371 138.172 111.695 138.476 112.103L137.644 113.054C137.46 112.797 137.231 112.591 136.975 112.45C136.718 112.31 136.439 112.239 136.157 112.241C135.913 112.226 135.669 112.273 135.442 112.381C135.215 112.488 135.01 112.653 134.84 112.864C134.671 113.075 134.541 113.327 134.459 113.604C134.378 113.88 134.347 114.174 134.368 114.467C134.366 114.768 134.415 115.066 134.512 115.343C134.609 115.621 134.752 115.871 134.932 116.081C135.112 116.29 135.325 116.453 135.559 116.56C135.792 116.668 136.042 116.717 136.292 116.705C136.568 116.712 136.842 116.641 137.091 116.497C137.34 116.354 137.558 116.143 137.727 115.88L138.611 116.83C138.328 117.245 137.968 117.575 137.56 117.792C137.151 118.009 136.706 118.108 136.261 118.081C135.849 118.101 135.438 118.023 135.052 117.851C134.666 117.679 134.312 117.417 134.01 117.08C133.708 116.743 133.465 116.337 133.295 115.887C133.124 115.436 133.029 114.949 133.016 114.454Z" fill="#0EA800"/>
<path d="M138.964 114.454C138.948 113.968 139.016 113.484 139.165 113.032C139.314 112.58 139.541 112.17 139.83 111.831C140.12 111.491 140.465 111.228 140.845 111.06C141.224 110.891 141.629 110.821 142.032 110.853C142.445 110.828 142.857 110.901 143.246 111.069C143.634 111.237 143.991 111.496 144.296 111.831C144.601 112.166 144.847 112.57 145.021 113.021C145.195 113.471 145.292 113.958 145.308 114.454C145.327 114.941 145.26 115.427 145.111 115.881C144.963 116.334 144.736 116.745 144.447 117.086C144.157 117.427 143.811 117.691 143.431 117.86C143.051 118.029 142.645 118.1 142.24 118.068C141.827 118.093 141.414 118.019 141.025 117.851C140.636 117.682 140.278 117.422 139.973 117.086C139.668 116.749 139.422 116.344 139.249 115.892C139.076 115.44 138.979 114.951 138.964 114.454ZM143.946 114.454C143.949 114.159 143.902 113.866 143.809 113.593C143.716 113.319 143.577 113.072 143.403 112.864C143.228 112.656 143.02 112.493 142.792 112.384C142.564 112.275 142.32 112.222 142.074 112.228C141.833 112.216 141.592 112.267 141.369 112.376C141.145 112.485 140.944 112.651 140.778 112.862C140.612 113.073 140.486 113.324 140.408 113.599C140.331 113.874 140.303 114.166 140.327 114.454C140.323 114.751 140.368 115.045 140.461 115.32C140.554 115.595 140.691 115.844 140.866 116.053C141.041 116.262 141.249 116.426 141.478 116.536C141.707 116.646 141.952 116.699 142.199 116.693C142.441 116.703 142.681 116.651 142.905 116.54C143.128 116.43 143.33 116.263 143.495 116.051C143.661 115.839 143.787 115.586 143.864 115.311C143.942 115.036 143.97 114.744 143.946 114.454Z" fill="#0EA800"/>
<path d="M146.224 110.965H148.855C149.265 110.917 149.679 110.971 150.071 111.123C150.463 111.275 150.824 111.522 151.134 111.849C151.443 112.176 151.693 112.576 151.868 113.025C152.043 113.473 152.14 113.959 152.152 114.454C152.175 114.943 152.108 115.432 151.957 115.886C151.805 116.341 151.572 116.75 151.274 117.084C150.977 117.418 150.621 117.669 150.234 117.82C149.846 117.97 149.436 118.017 149.032 117.955H146.391L146.224 110.965ZM148.959 116.63C149.205 116.661 149.452 116.626 149.685 116.528C149.918 116.43 150.13 116.271 150.306 116.063C150.482 115.855 150.617 115.603 150.703 115.325C150.788 115.047 150.821 114.75 150.8 114.454C150.8 114.153 150.747 113.855 150.646 113.58C150.545 113.304 150.397 113.057 150.212 112.854C150.028 112.65 149.81 112.495 149.573 112.398C149.335 112.302 149.084 112.265 148.835 112.291H147.607L147.732 116.63H148.959Z" fill="#0EA800"/>
<path d="M157.726 116.63V117.88H153.233L153.025 110.89H157.414V112.141H154.44V113.654H157.133V114.904H154.44V116.517L157.726 116.63Z" fill="#0EA800"/>
<path d="M118.955 143.902V146.703H108.045V144.49L113.849 137.75C115.263 136.087 115.502 135.049 115.492 133.999C115.492 132.373 114.514 131.423 112.694 131.423C112.037 131.383 111.382 131.531 110.781 131.855C110.181 132.179 109.653 132.669 109.241 133.286L107.286 131.498C107.958 130.509 108.816 129.726 109.789 129.213C110.761 128.7 111.821 128.472 112.881 128.547C116.105 128.547 118.217 130.51 118.258 133.674C118.258 135.399 117.905 136.987 115.887 139.313L111.987 143.852L118.955 143.902Z" fill="#0EA800"/>
<path d="M131.04 141.351C131.04 144.353 129.23 146.953 125.247 146.953C123.241 146.996 121.275 146.274 119.631 144.89L120.785 142.314C122.038 143.477 123.581 144.098 125.164 144.077C127.129 144.077 128.284 143.027 128.284 141.376C128.284 139.726 127.244 138.713 125.018 138.713H123.666V136.45L126.88 131.635H120.13V128.859H130.26V131.085L126.724 136.237C129.563 136.637 131.04 138.663 131.04 141.351Z" fill="#0EA800"/>
<path d="M144.913 141.639C144.913 144.953 142.594 147.016 138.902 147.016C135.21 147.016 132.818 144.953 132.777 141.639C132.745 140.728 132.951 139.828 133.365 139.064C133.778 138.3 134.38 137.709 135.085 137.375C134.51 137.024 134.026 136.487 133.69 135.825C133.354 135.162 133.178 134.4 133.182 133.624C133.182 130.56 135.345 128.622 138.632 128.622C141.918 128.622 144.217 130.535 144.258 133.624C144.29 134.395 144.134 135.162 143.809 135.828C143.484 136.495 143.004 137.032 142.428 137.375C143.151 137.702 143.775 138.284 144.219 139.045C144.662 139.806 144.904 140.71 144.913 141.639ZM142.126 141.539C142.126 139.776 140.816 138.676 138.777 138.676C136.739 138.676 135.522 139.776 135.553 141.539C135.585 143.302 136.822 144.415 138.861 144.415C140.899 144.415 142.157 143.29 142.126 141.477V141.539ZM135.886 133.786C135.886 135.312 136.926 136.287 138.725 136.287C140.525 136.287 141.554 135.312 141.523 133.786C141.492 132.261 140.348 131.285 138.642 131.285C136.937 131.285 135.886 132.111 135.907 133.724L135.886 133.786Z" fill="#0EA800"/>
<path d="M158.746 141.639C158.746 144.953 156.426 147.016 152.734 147.016C149.042 147.016 146.64 144.89 146.64 141.639C146.61 140.728 146.817 139.829 147.23 139.065C147.644 138.302 148.244 137.711 148.949 137.375C148.373 137.026 147.89 136.489 147.555 135.826C147.22 135.162 147.047 134.399 147.056 133.624C147.004 130.56 149.209 128.622 152.495 128.622C155.782 128.622 158.08 130.535 158.122 133.624C158.154 134.395 157.998 135.162 157.673 135.828C157.347 136.495 156.867 137.032 156.291 137.375C157.009 137.708 157.626 138.293 158.064 139.053C158.501 139.814 158.739 140.714 158.746 141.639ZM155.958 141.539C155.958 139.776 154.648 138.676 152.61 138.676C150.571 138.676 149.354 139.776 149.386 141.539C149.417 143.302 150.654 144.415 152.693 144.415C154.731 144.415 156 143.29 156 141.477L155.958 141.539ZM149.718 133.786C149.718 135.312 150.81 136.287 152.558 136.287C154.305 136.287 155.386 135.312 155.366 133.786C155.345 132.261 154.18 131.285 152.485 131.285C150.79 131.285 149.76 132.111 149.76 133.724L149.718 133.786Z" fill="#0EA800"/>
<path d="M79.7886 83.668L81.6294 113.891" stroke="#0EA800" stroke-linecap="round" stroke-linejoin="round"/>
<path d="M78.9463 69.8879L79.4351 77.8658" stroke="#0EA800" stroke-linecap="round" stroke-linejoin="round"/>
<path d="M128.305 39.8395V21.4453" stroke="#0EA800" stroke-linecap="round" stroke-linejoin="round"/>
<path d="M116.189 43.7409L108.545 27.8101" stroke="#0EA800" stroke-linecap="round" stroke-linejoin="round"/>
<path d="M148.065 27.8101L140.421 43.7409" stroke="#0EA800" stroke-linecap="round" stroke-linejoin="round"/>
<path d="M326.446 366.421C321.191 391.79 319.064 417.95 320.133 444.062" stroke="#07510C" stroke-miterlimit="10"/>
<path d="M321.589 365.346C321.589 367.671 323.378 375.937 325.323 375.874C327.267 375.812 328.671 367.471 328.619 365.133C328.608 364.578 328.505 364.031 328.318 363.524C328.131 363.016 327.862 362.558 327.527 362.176C327.193 361.793 326.799 361.493 326.368 361.294C325.937 361.094 325.477 360.999 325.016 361.013C324.554 361.027 324.099 361.15 323.677 361.375C323.255 361.601 322.874 361.924 322.556 362.326C322.238 362.728 321.989 363.202 321.823 363.72C321.657 364.238 321.577 364.791 321.589 365.346Z" fill="#07510C"/>
<path d="M329.15 391.593C329.15 389.254 327.361 381.001 325.427 381.051C323.492 381.101 322.078 389.454 322.12 391.793C322.13 392.348 322.232 392.895 322.419 393.402C322.606 393.91 322.874 394.369 323.208 394.752C323.542 395.135 323.936 395.435 324.366 395.636C324.797 395.836 325.256 395.932 325.718 395.919C326.18 395.906 326.635 395.784 327.057 395.559C327.479 395.335 327.86 395.012 328.179 394.611C328.498 394.209 328.748 393.735 328.914 393.218C329.081 392.7 329.161 392.148 329.15 391.593Z" fill="#07510C"/>
<path d="M314.454 382.977C316.399 382.977 323.263 380.826 323.211 378.488C323.159 376.15 316.233 374.461 314.288 374.524C313.826 374.537 313.371 374.659 312.949 374.884C312.527 375.108 312.145 375.431 311.827 375.833C311.508 376.234 311.258 376.708 311.092 377.225C310.925 377.743 310.845 378.295 310.856 378.851C310.867 379.406 310.969 379.953 311.155 380.46C311.342 380.968 311.61 381.427 311.944 381.81C312.279 382.193 312.672 382.493 313.103 382.694C313.534 382.894 313.993 382.99 314.454 382.977Z" fill="#07510C"/>
<path d="M336.284 373.924C334.35 373.924 327.475 376.074 327.527 378.4C327.579 380.726 334.516 382.427 336.461 382.377C336.922 382.363 337.377 382.24 337.799 382.014C338.221 381.789 338.602 381.466 338.92 381.064C339.239 380.661 339.488 380.188 339.654 379.669C339.82 379.151 339.899 378.599 339.888 378.044C339.876 377.489 339.774 376.942 339.586 376.435C339.399 375.927 339.13 375.469 338.795 375.086C338.461 374.704 338.067 374.404 337.636 374.205C337.205 374.005 336.746 373.91 336.284 373.924Z" fill="#07510C"/>
<path d="M314.974 372.398C316.389 374.011 322.473 378.375 323.814 376.675C325.156 374.974 321.235 367.922 319.831 366.284C319.157 365.509 318.254 365.089 317.322 365.114C316.39 365.14 315.504 365.61 314.86 366.421C314.216 367.232 313.866 368.317 313.888 369.438C313.909 370.559 314.3 371.624 314.974 372.398Z" fill="#07510C"/>
<path d="M335.764 384.528C334.36 382.915 328.276 378.563 326.935 380.251C325.593 381.939 329.504 389.004 330.908 390.655C331.242 391.038 331.636 391.339 332.067 391.539C332.499 391.739 332.958 391.836 333.421 391.822C333.883 391.809 334.338 391.686 334.761 391.461C335.183 391.236 335.565 390.913 335.884 390.511C336.203 390.109 336.453 389.635 336.619 389.116C336.786 388.598 336.866 388.045 336.855 387.49C336.844 386.934 336.742 386.386 336.555 385.878C336.367 385.37 336.099 384.911 335.764 384.528Z" fill="#07510C"/>
<path d="M320.32 390.967C321.662 389.267 325.281 381.952 323.877 380.339C322.473 378.725 316.597 383.44 315.224 385.128C314.58 385.94 314.231 387.027 314.253 388.149C314.276 389.271 314.668 390.337 315.344 391.111C316.02 391.886 316.924 392.305 317.857 392.279C318.79 392.252 319.676 391.78 320.32 390.967Z" fill="#07510C"/>
<path d="M330.418 365.971C329.077 367.659 325.447 374.974 326.862 376.587C328.276 378.2 334.142 373.499 335.504 371.811C335.823 371.409 336.073 370.936 336.24 370.418C336.407 369.901 336.487 369.348 336.476 368.793C336.466 368.238 336.364 367.691 336.178 367.183C335.991 366.676 335.724 366.217 335.39 365.833C335.056 365.45 334.662 365.149 334.232 364.949C333.801 364.748 333.342 364.651 332.88 364.664C332.419 364.677 331.964 364.799 331.541 365.023C331.119 365.247 330.737 365.569 330.418 365.971Z" fill="#07510C"/>
<path d="M321.204 378.588C321.225 379.576 321.489 380.535 321.962 381.343C322.436 382.151 323.098 382.772 323.865 383.128C324.632 383.484 325.47 383.559 326.272 383.343C327.075 383.126 327.806 382.629 328.373 381.914C328.941 381.198 329.319 380.297 329.461 379.323C329.602 378.349 329.5 377.347 329.168 376.442C328.836 375.538 328.289 374.772 327.595 374.241C326.901 373.711 326.092 373.439 325.27 373.461C324.723 373.476 324.184 373.62 323.683 373.886C323.182 374.152 322.73 374.534 322.352 375.01C321.974 375.486 321.679 376.047 321.481 376.661C321.284 377.275 321.19 377.93 321.204 378.588Z" fill="white"/>
<path d="M320.611 415.801C320.611 415.801 321.329 403.034 327.163 401.021C332.998 399.008 335.13 396.257 335.13 396.257C335.13 396.257 334.537 416.052 320.611 415.801Z" fill="#07510C"/>
<path opacity="0.5" d="M320.611 415.801C320.611 415.801 321.329 403.034 327.163 401.021C332.998 399.008 335.13 396.257 335.13 396.257C335.13 396.257 334.537 416.052 320.611 415.801Z" fill="white"/>
<path d="M319.842 425.58C319.842 425.58 319.124 412.813 313.29 410.787C307.455 408.761 305.323 406.035 305.323 406.035C305.323 406.035 305.916 425.83 319.842 425.58Z" fill="#07510C"/>
<path opacity="0.5" d="M319.842 425.58C319.842 425.58 319.124 412.813 313.29 410.787C307.455 408.761 305.323 406.035 305.323 406.035C305.323 406.035 305.916 425.83 319.842 425.58Z" fill="white"/>
<path d="M341.848 452.177C341.848 462.181 331.979 470.209 319.811 470.209C307.643 470.209 297.773 462.143 297.773 452.177C297.773 447.175 300.3 442.574 304.387 439.31C306.963 437.29 309.825 435.858 312.832 435.083H326.789C329.873 435.881 332.805 437.37 335.431 439.473C339.404 442.736 341.848 447.213 341.848 452.177Z" fill="#07510C"/>
<path opacity="0.8" d="M326.789 435.083C329.873 435.881 332.805 437.37 335.431 439.473C339.404 442.736 341.848 447.213 341.848 452.177C341.848 462.181 331.979 470.209 319.811 470.209C307.643 470.209 297.773 462.143 297.773 452.177C297.773 447.175 300.3 442.574 304.387 439.31C306.963 437.29 309.825 435.858 312.832 435.083H326.789Z" fill="white"/>
<path d="M319.873 436.747V445.662" stroke="#07510C" stroke-miterlimit="10"/>
<path d="M336.399 434.809L335.234 439.185L335.213 439.235H304.398L304.335 438.998L303.223 434.809H336.399Z" fill="#07510C"/>
<path d="M339.248 455.804C337.04 459.483 334.139 462.483 330.782 464.557C325.489 467.933 303.222 468.796 300.674 453.615C300.674 453.403 300.581 453.19 300.55 452.978C300.438 452.038 300.506 451.079 300.749 450.176C300.991 449.272 301.401 448.446 301.949 447.762C302.496 447.077 303.166 446.552 303.907 446.225C304.649 445.898 305.442 445.778 306.228 445.875C308.339 446.046 310.459 445.903 312.541 445.45C320.535 443.994 328.693 444.517 336.513 446.988C337.254 447.224 337.937 447.67 338.505 448.289C339.073 448.908 339.509 449.682 339.777 450.545C340.044 451.409 340.136 452.337 340.044 453.252C339.952 454.167 339.679 455.042 339.248 455.804Z" fill="#0EA800"/>
<path d="M179.41 450.752C179.605 450.66 179.777 450.512 179.912 450.32C180.046 450.127 180.138 449.898 180.18 449.651C180.219 449.503 180.225 449.344 180.196 449.192C180.166 449.04 180.103 448.901 180.013 448.789C179.212 447.788 175.957 448.501 175.593 448.588C175.551 448.593 175.511 448.613 175.479 448.647C175.447 448.681 175.425 448.726 175.416 448.776C175.408 448.825 175.412 448.875 175.426 448.922C175.441 448.968 175.467 449.009 175.5 449.039C176.149 449.609 176.846 450.095 177.58 450.489C178.145 450.832 178.793 450.925 179.41 450.752ZM179.701 449.139C179.74 449.191 179.766 449.254 179.777 449.322C179.788 449.39 179.783 449.461 179.764 449.526C179.74 449.69 179.681 449.844 179.594 449.973C179.507 450.102 179.393 450.203 179.264 450.264C178.672 450.527 177.538 450.039 176.144 449.014C177.496 448.739 179.275 448.601 179.701 449.139Z" fill="#07510C"/>
<path d="M175.656 449.089C176.696 448.939 178.942 447.526 179.14 446.3C179.174 446.1 179.15 445.892 179.07 445.711C178.99 445.531 178.86 445.39 178.703 445.312C178.556 445.215 178.394 445.157 178.227 445.142C178.06 445.127 177.893 445.155 177.736 445.225C176.488 445.737 175.469 448.613 175.427 448.738C175.412 448.778 175.404 448.82 175.404 448.864C175.404 448.907 175.412 448.949 175.427 448.989C175.451 449.027 175.484 449.057 175.521 449.076L175.656 449.089ZM178.485 445.762C178.734 445.925 178.745 446.087 178.724 446.2C178.599 446.95 177.07 448.113 175.999 448.476C176.384 447.538 177.133 445.975 177.881 445.7C178.048 445.618 178.235 445.618 178.401 445.7L178.485 445.762Z" fill="#07510C"/>
<path d="M165.786 444.049L174.252 448.163L181.646 424.642L173.17 420.528L165.786 444.049Z" fill="#FFB573"/>
<path d="M175.323 447.325L165.818 442.711C165.656 442.626 165.473 442.615 165.305 442.679C165.137 442.744 164.994 442.879 164.902 443.061L160.742 451.439C160.644 451.655 160.585 451.893 160.57 452.138C160.554 452.383 160.582 452.629 160.652 452.86C160.722 453.091 160.832 453.301 160.975 453.476C161.118 453.652 161.29 453.789 161.481 453.878C164.83 455.428 166.504 455.966 170.685 458.004C173.264 459.255 176.925 461.393 180.461 463.131C183.997 464.869 185.661 460.793 184.298 459.692C178.256 454.778 178.058 451.94 176.55 448.638C176.282 448.042 175.847 447.577 175.323 447.325Z" fill="#0EA800"/>
<path d="M181.532 436.184L166.826 429.031L168.178 422.554L183.955 429.494L181.532 436.184Z" fill="#07510C"/>
<path d="M196.258 163.935C193.273 174.326 184.444 198.785 177.632 188.594C176.406 186.794 175.404 184.788 174.657 182.642C171.777 174.076 171.059 160.196 170.695 157.157L168.376 147.641C168.335 147.479 168.314 147.311 168.313 147.141V141.702C168.313 139.501 169.79 138.188 171.787 138.388C171.787 138.388 175.011 137.938 175.011 140.251L175.635 148.417C175.957 151.255 175.021 155.207 175.573 157.807C177.653 167.599 180.513 168.049 182.312 178.152C184.818 170.862 189.301 158.245 189.301 158.245C192.275 158.695 197.236 160.521 196.258 163.935Z" fill="#FFB573"/>
<path d="M185.588 192.32C185.12 193.197 184.482 193.925 183.729 194.441C182.975 194.956 182.129 195.244 181.263 195.28C180.397 195.315 179.536 195.098 178.755 194.645C177.974 194.193 177.296 193.52 176.779 192.683C175.546 190.713 174.578 188.523 173.909 186.193C171.205 175.527 169.531 168.924 169.302 157.783C170.26 156.618 171.471 155.801 172.796 155.423C174.122 155.045 175.509 155.121 176.8 155.644L181.231 173.688C181.231 173.688 190.247 146.741 193.898 145.778C198.193 144.64 199.982 149.254 201.802 154.932C203.112 159.008 191.464 181.429 185.588 192.32Z" fill="#07510C"/>
<path d="M222.019 118.806C220.979 125.058 218.712 138.713 222.352 142.889C222.352 142.889 220.927 149.229 211.265 149.229C200.626 149.229 206.18 142.889 206.18 142.889C211.983 141.226 211.827 136.049 210.818 131.185L222.019 118.806Z" fill="#FFB573"/>
<path d="M205.764 104.125C205.826 104.137 205.889 104.137 205.951 104.125C206.047 104.062 206.119 103.956 206.152 103.83C206.185 103.705 206.176 103.568 206.128 103.45C205.85 102.732 205.431 102.105 204.908 101.624C204.384 101.143 203.772 100.821 203.122 100.687C203.068 100.678 203.013 100.682 202.961 100.7C202.908 100.717 202.859 100.748 202.816 100.788C202.773 100.829 202.738 100.88 202.712 100.938C202.686 100.996 202.67 101.059 202.665 101.124C202.657 101.189 202.661 101.256 202.676 101.319C202.69 101.382 202.715 101.441 202.749 101.493C202.783 101.544 202.826 101.587 202.874 101.618C202.922 101.649 202.974 101.668 203.029 101.675C203.541 101.795 204.021 102.059 204.432 102.446C204.842 102.833 205.17 103.331 205.39 103.9C205.43 103.974 205.486 104.034 205.551 104.074C205.617 104.113 205.691 104.131 205.764 104.125Z" fill="#0EA800"/>
<path d="M202.592 109.527C201.769 111.356 200.74 113.039 199.534 114.529C199.861 114.889 200.248 115.159 200.67 115.321C201.092 115.483 201.539 115.533 201.978 115.467L202.592 109.527Z" fill="#ED893E"/>
<path d="M203.424 107.702C203.58 108.527 203.33 109.302 202.883 109.415C202.436 109.527 201.937 108.952 201.791 108.164C201.645 107.377 201.885 106.564 202.342 106.439C202.8 106.314 203.278 106.864 203.424 107.702Z" fill="#0EA800"/>
<path d="M202.55 106.401L200.782 106.251C200.782 106.251 201.916 107.589 202.55 106.401Z" fill="#0EA800"/>
<path opacity="0.2" d="M195.884 158.608C197.725 156.57 199.004 157.182 199.815 158.795C200.657 163.472 195.655 173.276 193.689 176.99L195.884 158.608Z" fill="black"/>
<path d="M238.472 164.773C238.233 169.924 237.827 176.414 237.172 184.58C236.486 193.195 235.508 203.662 234.166 216.379C220.033 216.379 205.234 216.116 198.359 216.116C198.942 199.223 199.149 182.104 192.847 148.492C192.768 148.075 192.76 147.643 192.822 147.223C192.884 146.802 193.017 146.401 193.211 146.042C193.405 145.684 193.657 145.377 193.952 145.138C194.246 144.899 194.578 144.734 194.927 144.653C199.036 143.757 203.186 143.168 207.355 142.89C212.739 142.426 218.143 142.426 223.527 142.89C230.464 143.652 238.347 145.591 238.347 145.591C238.347 145.591 239.2 148.692 238.472 164.773Z" fill="#07510C"/>
<path opacity="0.2" d="M238.472 164.773C238.233 169.925 237.827 176.414 237.172 184.58C233.365 179.278 229.767 161.021 230.932 154.781C233.769 157.305 236.264 160.342 238.326 163.785C238.39 164.111 238.438 164.44 238.472 164.773Z" fill="black"/>
<path d="M275.173 187.656L282.453 182.754L283.805 191.67C283.805 191.67 277.669 194.508 274.445 192.52L275.173 187.656Z" fill="#FFB573"/>
<path d="M287.269 183.767L287.778 186.681C287.853 187.127 287.817 187.591 287.675 188.013C287.532 188.436 287.29 188.798 286.978 189.056L283.774 191.657L282.422 182.742L284.929 181.991C285.18 181.916 285.441 181.902 285.696 181.952C285.951 182.001 286.196 182.112 286.414 182.278C286.633 182.444 286.822 182.661 286.968 182.917C287.115 183.173 287.217 183.462 287.269 183.767Z" fill="#FFB573"/>
<path d="M231.504 155.919C233.823 161.596 242.33 183.042 246.064 187.994L246.802 188.919L247.166 189.382C247.291 189.532 247.395 189.669 247.593 189.882C248.264 190.648 249.003 191.323 249.798 191.895C251.216 192.88 252.742 193.621 254.332 194.096C257.119 194.873 259.98 195.197 262.839 195.059C268.166 194.803 273.444 193.727 278.543 191.857L277.68 186.656C275.278 186.906 272.761 187.081 270.327 187.131C267.915 187.216 265.502 187.124 263.099 186.856C260.871 186.663 258.671 186.147 256.547 185.318C255.689 184.971 254.876 184.478 254.134 183.854C253.85 183.614 253.588 183.338 253.354 183.029C253.272 182.927 253.196 182.818 253.126 182.704L252.855 182.316L252.304 181.541C249.434 177.215 241.852 156.357 239.574 151.143L231.504 155.919Z" fill="#FFB573"/>
<path d="M275.059 196.534C269.065 200.364 262.054 201.183 255.559 198.81C249.364 196.414 244.137 191.321 240.905 184.53C237.151 177.89 227.157 159.108 228.425 154.256C229.913 148.454 233.074 144.853 238.357 146.416C242.07 147.491 249.153 169.174 252.585 177.84C253.926 180.253 256.505 184.092 259.386 185.268C264.472 187.381 268.216 186.518 273.541 185.555C274.518 186.255 274.445 187.343 274.934 188.556C275.459 189.787 275.743 191.145 275.765 192.528C275.786 193.91 275.545 195.281 275.059 196.534Z" fill="#07510C"/>
<path d="M227.261 108.79C225.669 119.068 225.181 123.458 220.272 128.134C212.909 135.162 202.748 130.56 201.76 119.906C200.865 110.315 203.621 95.1097 212.482 92.2462C214.433 91.6024 216.489 91.5692 218.454 92.1497C220.419 92.7302 222.227 93.9051 223.708 95.5628C225.189 97.2205 226.293 99.306 226.915 101.621C227.536 103.936 227.655 106.404 227.261 108.79Z" fill="#FFB573"/>
<path d="M257.608 165.698C255.975 167.936 255.466 169.237 253.188 170.45C250.911 171.663 245.981 170.6 244.411 168.286C244.92 170.087 247.895 173.288 249.455 173.576C247.694 174.737 245.657 175.141 243.679 174.723C241.702 174.305 239.902 173.089 238.576 171.275C238.794 172.403 239.248 173.444 239.897 174.3C240.545 175.157 241.365 175.798 242.279 176.164C222.352 176.789 230.745 165.51 218.265 149.467C204.454 131.71 207.449 117.03 207.449 117.03C207.482 113.374 206.53 109.803 204.735 106.851C202.738 103.775 203.32 99.6238 203.955 97.2979C204.88 93.8842 207.699 92.6838 210.403 92.4837C210.881 89.12 216.643 89.7327 217.339 90.2954C218.036 90.8581 218.119 90.7455 218.754 90.2954C220.158 89.2075 223.694 88.0821 227.479 91.7584C229.788 94.0092 232.263 98.0107 232.347 106.614C232.43 115.53 228.883 126.121 241.155 139.663C248.383 147.616 244.92 164.76 257.608 165.698Z" fill="#0EA800"/>
<path d="M205.806 109.565C204.839 111.214 204.436 113.246 204.682 115.242C205.036 117.88 207.168 118.056 208.718 116.367C210.267 114.679 211.619 111.628 210.475 109.44C209.331 107.252 207.012 107.564 205.806 109.565Z" fill="#FFB573"/>
<path d="M225.108 216.366C225.108 216.366 220.854 288.155 216.07 335.497C214.632 349.705 211.029 363.473 205.442 376.112L182 429.331L169.978 423.642C169.978 423.642 178.298 373.061 194.511 345.476C194.511 345.476 182.385 263.033 198.255 216.116L225.108 216.366Z" fill="#0EA800"/>
<path opacity="0.2" d="M208.759 233.76C208.759 233.76 212.337 266.272 214.292 285.617C206.96 273.987 201.271 257.757 208.759 233.76Z" fill="black"/>
<path d="M255.466 457.492C255.605 457.305 255.702 457.077 255.746 456.832C255.79 456.586 255.779 456.331 255.715 456.091C255.691 455.938 255.633 455.795 255.547 455.679C255.461 455.562 255.35 455.476 255.227 455.429C254.114 454.978 251.524 457.417 251.233 457.692C251.201 457.725 251.177 457.768 251.164 457.817C251.151 457.866 251.15 457.918 251.16 457.967C251.173 458.013 251.197 458.054 251.228 458.085C251.259 458.116 251.297 458.135 251.337 458.142C252.145 458.29 252.965 458.328 253.781 458.255C254.399 458.242 254.994 457.973 255.466 457.492ZM255.081 455.916C255.136 455.936 255.186 455.975 255.223 456.028C255.26 456.082 255.283 456.147 255.289 456.216C255.335 456.372 255.345 456.54 255.32 456.703C255.294 456.865 255.233 457.017 255.143 457.142C254.727 457.704 253.542 457.904 251.919 457.704C252.98 456.754 254.499 455.666 255.081 455.916Z" fill="#07510C"/>
<path d="M251.493 458.104C252.314 457.417 253.781 454.903 253.469 453.715C253.419 453.518 253.315 453.346 253.173 453.23C253.031 453.114 252.86 453.06 252.689 453.078C252.523 453.072 252.358 453.109 252.206 453.187C252.053 453.265 251.916 453.381 251.805 453.528C250.9 454.678 251.139 457.779 251.149 457.917C251.156 457.961 251.17 458.004 251.192 458.04C251.213 458.077 251.242 458.108 251.274 458.13C251.312 458.141 251.351 458.141 251.389 458.13C251.425 458.134 251.461 458.125 251.493 458.104ZM252.678 453.59C252.959 453.59 253.032 453.74 253.063 453.853C253.24 454.591 252.356 456.454 251.555 457.367C251.434 456.162 251.631 454.942 252.117 453.878C252.235 453.72 252.398 453.621 252.574 453.603L252.678 453.59Z" fill="#07510C"/>
<path d="M240.781 459.117L249.891 458.067L247.104 433.183L237.994 434.246L240.781 459.117Z" fill="#FFB573"/>
<path d="M250.505 456.754L240.271 457.942C240.095 457.957 239.93 458.05 239.807 458.202C239.684 458.354 239.613 458.555 239.605 458.767L239.231 468.483C239.231 468.73 239.275 468.974 239.359 469.199C239.443 469.424 239.565 469.625 239.718 469.789C239.872 469.953 240.052 470.077 240.247 470.151C240.443 470.226 240.65 470.25 240.853 470.221C244.41 469.746 246.053 469.296 250.609 468.771C253.375 468.446 257.452 468.321 261.279 467.883C265.106 467.445 264.929 462.944 263.359 462.719C256.079 461.731 254.737 459.355 252.137 457.242C251.657 456.856 251.079 456.683 250.505 456.754Z" fill="#0EA800"/>
<path d="M234.115 216.354C234.115 216.354 245.773 302.023 248.009 352.766L248.435 443.674L239.003 445.888C239.003 445.888 225.347 387.892 223.767 354.367C219.607 265.434 195.51 265.284 210.007 216.191L234.115 216.354Z" fill="#0EA800"/>
<path d="M251.565 444.049L235.955 446.613L234.364 439.41L251.056 436.797L251.565 444.049Z" fill="#07510C"/>
<path d="M167.44 124.445H168.033C167.891 124.445 167.752 124.479 167.622 124.546C167.492 124.613 167.375 124.711 167.278 124.833C167.181 124.956 167.105 125.102 167.056 125.261C167.007 125.42 166.985 125.589 166.993 125.758L167.949 147.529C167.978 147.87 168.11 148.187 168.322 148.418C168.533 148.649 168.808 148.778 169.093 148.779H168.48C168.195 148.775 167.921 148.645 167.71 148.415C167.499 148.185 167.366 147.869 167.336 147.529L166.4 125.758C166.393 125.589 166.414 125.42 166.463 125.261C166.513 125.102 166.588 124.956 166.685 124.833C166.783 124.711 166.9 124.613 167.029 124.546C167.159 124.479 167.299 124.445 167.44 124.445Z" fill="#07510C"/>
<path opacity="0.1" d="M167.44 124.445H168.033C167.891 124.445 167.752 124.479 167.622 124.546C167.492 124.613 167.375 124.711 167.278 124.833C167.181 124.956 167.105 125.102 167.056 125.261C167.007 125.42 166.985 125.589 166.993 125.758L167.949 147.529C167.978 147.87 168.11 148.187 168.322 148.418C168.533 148.649 168.808 148.778 169.093 148.779H168.48C168.195 148.775 167.921 148.645 167.71 148.415C167.499 148.185 167.366 147.869 167.336 147.529L166.4 125.758C166.393 125.589 166.414 125.42 166.463 125.261C166.513 125.102 166.588 124.956 166.685 124.833C166.783 124.711 166.9 124.613 167.029 124.546C167.159 124.479 167.299 124.445 167.44 124.445Z" fill="white"/>
<path d="M168.636 148.842H175.916C176.192 148.842 176.456 148.71 176.652 148.475C176.847 148.241 176.956 147.923 176.956 147.591L176.01 125.821C175.991 125.469 175.864 125.138 175.651 124.895C175.439 124.652 175.159 124.513 174.866 124.508H167.586C167.445 124.508 167.305 124.542 167.175 124.609C167.046 124.675 166.929 124.773 166.831 124.896C166.734 125.019 166.659 125.164 166.609 125.323C166.56 125.482 166.539 125.651 166.546 125.821L167.492 147.591C167.523 147.932 167.656 148.247 167.867 148.478C168.078 148.708 168.351 148.838 168.636 148.842Z" fill="#07510C"/>
<path opacity="0.4" d="M168.636 148.842H175.916C176.192 148.842 176.456 148.71 176.652 148.475C176.847 148.241 176.956 147.923 176.956 147.591L176.01 125.821C175.991 125.469 175.864 125.138 175.651 124.895C175.439 124.652 175.159 124.513 174.866 124.508H167.586C167.445 124.508 167.305 124.542 167.175 124.609C167.046 124.675 166.929 124.773 166.831 124.896C166.734 125.019 166.659 125.164 166.609 125.323C166.56 125.482 166.539 125.651 166.546 125.821L167.492 147.591C167.523 147.932 167.656 148.247 167.867 148.478C168.078 148.708 168.351 148.838 168.636 148.842Z" fill="white"/>
<path d="M176.519 147.079C176.525 147.188 176.512 147.297 176.482 147.4C176.451 147.504 176.404 147.598 176.342 147.679C176.212 147.832 176.036 147.917 175.854 147.916H168.771C168.573 147.914 168.383 147.82 168.24 147.655C168.098 147.491 168.012 147.266 168.002 147.029L167.076 125.908C167.069 125.801 167.082 125.693 167.112 125.592C167.143 125.491 167.191 125.398 167.253 125.321C167.315 125.24 167.391 125.177 167.475 125.133C167.559 125.09 167.65 125.069 167.742 125.071H174.824C175.022 125.073 175.212 125.167 175.355 125.332C175.498 125.497 175.583 125.721 175.594 125.958L175.656 127.472L176.519 147.079Z" fill="#0EA800"/>
<g opacity="0.1">
<path d="M175.656 127.472L173.306 147.891H170.487L173.15 125.046H174.824C175.022 125.048 175.212 125.142 175.355 125.307C175.498 125.472 175.583 125.696 175.594 125.933L175.656 127.472Z" fill="white"/>
<path d="M169.468 147.916H168.833L171.496 125.071H172.13L169.468 147.916Z" fill="white"/>
</g>
<path d="M196.061 218.792C190.765 231.34 187.92 245.175 187.741 259.245C205.421 275.738 221.884 256.419 242.122 259.682C241.415 248.691 238.306 228.421 234.624 218.267C221.218 218.955 208.697 217.342 196.061 218.792Z" fill="#07510C"/>
<path d="M197.901 214.328C197.901 214.328 196.477 218.742 196.861 218.742H234C234.322 218.742 234.582 218.555 234.603 218.305L234.925 214.553C234.925 214.291 234.665 214.066 234.322 214.066H198.484C198.376 214.048 198.267 214.063 198.165 214.109C198.063 214.154 197.973 214.23 197.901 214.328Z" fill="white"/>
<path d="M203.133 219.167H202.176C201.978 219.167 201.833 219.042 201.843 218.892L202.301 213.891C202.301 213.74 202.478 213.628 202.665 213.628H203.632C203.819 213.628 203.965 213.74 203.954 213.891L203.507 218.892C203.478 218.981 203.426 219.056 203.358 219.105C203.291 219.155 203.212 219.177 203.133 219.167Z" fill="#07510C"/>
<path d="M226.387 219.167H225.43C225.243 219.167 225.098 219.042 225.108 218.892L225.555 213.891C225.555 213.74 225.732 213.628 225.93 213.628H226.886C227.074 213.628 227.219 213.74 227.209 213.891L226.762 218.892C226.72 218.992 226.585 219.167 226.387 219.167Z" fill="#07510C"/>
</g>
<defs>
<clipPath id="clip0_52_2701">
<rect width="520" height="480" fill="white"/>
</clipPath>
</defs>
</svg>
