<svg width="113" height="56" viewBox="0 0 113 56" fill="none" xmlns="http://www.w3.org/2000/svg">
<path d="M104.966 0H7.96414C3.6941 0 0.232544 1.72362 0.232544 3.84981V52.1502C0.232544 54.2764 3.6941 56 7.96414 56H104.966C109.236 56 112.698 54.2764 112.698 52.1502V3.84981C112.698 1.72362 109.236 0 104.966 0Z" fill="#CCE7D4"/>
<path fill-rule="evenodd" clip-rule="evenodd" d="M45.5291 34.2685L41.468 38.3131V27.813L45.5291 34.2685Z" fill="#00A859"/>
<path fill-rule="evenodd" clip-rule="evenodd" d="M40.8382 37.6779L33.7621 27.9652L40.7519 27.8726L40.8382 37.6779Z" fill="#00A859"/>
<path fill-rule="evenodd" clip-rule="evenodd" d="M46.1534 34.5884L42.2485 38.2745L57.2831 38.8871L46.1534 34.5884Z" fill="#00A859"/>
<path fill-rule="evenodd" clip-rule="evenodd" d="M57.5562 39.2728L42.3267 38.7021L50.4102 42.6494L57.5562 39.2728Z" fill="#00A859"/>
<path fill-rule="evenodd" clip-rule="evenodd" d="M57.908 39.6548L50.8395 42.8825L57.6343 46.3629L57.908 39.6548Z" fill="#00A859"/>
<path fill-rule="evenodd" clip-rule="evenodd" d="M40.7845 38.5274L40.199 43.9525L27.6243 37.4385L40.7845 38.5274Z" fill="#00A859"/>
<path fill-rule="evenodd" clip-rule="evenodd" d="M37.8559 34.7158L40.7064 38.2548L27.5856 37.1077L37.8559 34.7158Z" fill="#00A859"/>
<path fill-rule="evenodd" clip-rule="evenodd" d="M41.4489 38.7212L57.5772 46.7324L40.7852 44.1074L41.4489 38.7212Z" fill="#00A859"/>
<path fill-rule="evenodd" clip-rule="evenodd" d="M62.1851 44.3213L58.2015 46.5769L58.5534 39.4604L62.1851 44.3213Z" fill="#00A859"/>
<path fill-rule="evenodd" clip-rule="evenodd" d="M69.5268 40.3937L62.6145 44.0879L59.139 39.2852L69.5268 40.3937Z" fill="#00A859"/>
<path fill-rule="evenodd" clip-rule="evenodd" d="M70.0527 40.7139L58.6499 46.7414L75.6763 45.0694L70.0527 40.7139Z" fill="#00A859"/>
<path fill-rule="evenodd" clip-rule="evenodd" d="M78.6259 39.9072L76.2435 44.9044L70.933 40.6653L78.6259 39.9072Z" fill="#00A859"/>
<path fill-rule="evenodd" clip-rule="evenodd" d="M79.4853 39.7907L76.8685 44.9435L90.0674 38.7407L79.4853 39.7907Z" fill="#00A859"/>
<path fill-rule="evenodd" clip-rule="evenodd" d="M74.6035 34.1318L70.7768 40.2375L78.899 39.4984L74.6035 34.1318Z" fill="#00A859"/>
<path fill-rule="evenodd" clip-rule="evenodd" d="M75.0336 33.8594L79.719 39.4205L90.3025 38.3901L75.0336 33.8594Z" fill="#00A859"/>
<path fill-rule="evenodd" clip-rule="evenodd" d="M70.1919 39.9845L68.4738 36.6594L73.9018 34.0537L70.1919 39.9845Z" fill="#00A859"/>
<path fill-rule="evenodd" clip-rule="evenodd" d="M67.9093 36.7759L69.4711 40.1203L58.8883 38.8758L67.9093 36.7759Z" fill="#00A859"/>
<path fill-rule="evenodd" clip-rule="evenodd" d="M32.5862 28.0064L26.8071 36.9316L22.7065 27.9482L32.5862 28.0064Z" fill="#00A859"/>
<path fill-rule="evenodd" clip-rule="evenodd" d="M37.5461 34.3451L27.5876 36.6785L33.0944 28.2397L37.5461 34.3451Z" fill="#00A859"/>
<path fill-rule="evenodd" clip-rule="evenodd" d="M26.7283 19.0225L32.43 27.5779H22.6277L26.7283 19.0225Z" fill="#00A859"/>
<path fill-rule="evenodd" clip-rule="evenodd" d="M41.0991 18.478L33.7187 27.5781L41.0603 27.4228L41.0991 18.478Z" fill="#00A859"/>
<path fill-rule="evenodd" clip-rule="evenodd" d="M37.1548 22.1338L33.0156 27.5008L27.2751 18.8672L37.1548 22.1338Z" fill="#00A859"/>
<path fill-rule="evenodd" clip-rule="evenodd" d="M40.7866 17.7388L27.9388 18.7498L37.3892 21.8027L40.7866 17.7388Z" fill="#00A859"/>
<path fill-rule="evenodd" clip-rule="evenodd" d="M40.9041 17.4192L27.1576 18.5081L40.0447 11.7803L40.9041 17.4192Z" fill="#00A859"/>
<path fill-rule="evenodd" clip-rule="evenodd" d="M45.6303 21.0249L41.8035 26.8972L41.7254 17.9331L45.6303 21.0249Z" fill="#00A859"/>
<path fill-rule="evenodd" clip-rule="evenodd" d="M57.4827 16.8926L46.1771 20.6744L42.5067 17.7579L57.4827 16.8926Z" fill="#00A859"/>
<path fill-rule="evenodd" clip-rule="evenodd" d="M49.1656 13.4706L41.5114 17.204L40.809 11.6426L49.1656 13.4706Z" fill="#00A859"/>
<path fill-rule="evenodd" clip-rule="evenodd" d="M49.7919 13.7344L42.4849 17.3278L57.5215 16.5007L49.7919 13.7344Z" fill="#00A859"/>
<path fill-rule="evenodd" clip-rule="evenodd" d="M50.2267 13.4513L57.959 16.3093L57.7246 9.61572L50.2267 13.4513Z" fill="#00A859"/>
<path fill-rule="evenodd" clip-rule="evenodd" d="M58.2667 9.4624L58.5887 16.3749L62.4549 11.7227L58.2667 9.4624Z" fill="#00A859"/>
<path fill-rule="evenodd" clip-rule="evenodd" d="M49.7152 13.2397L41.1337 11.4022L57.6519 9.2583L49.7152 13.2397Z" fill="#00A859"/>
<path fill-rule="evenodd" clip-rule="evenodd" d="M70.1878 15.8501L59.0289 16.8128L67.7863 19.0146L70.1878 15.8501Z" fill="#00A859"/>
<path fill-rule="evenodd" clip-rule="evenodd" d="M70.3352 15.4488L62.9542 11.9707L59.2932 16.3895L70.3352 15.4488Z" fill="#00A859"/>
<path fill-rule="evenodd" clip-rule="evenodd" d="M74.9045 22.0403L68.52 19.2259L70.8631 16.0029L74.9045 22.0403Z" fill="#00A859"/>
<path fill-rule="evenodd" clip-rule="evenodd" d="M78.9174 16.8631L71.4493 15.7837L75.4031 21.7338L78.9174 16.8631Z" fill="#00A859"/>
<path fill-rule="evenodd" clip-rule="evenodd" d="M79.8549 16.9067L75.8427 22.2152L89.8126 18.3359L79.8549 16.9067Z" fill="#00A859"/>
<path fill-rule="evenodd" clip-rule="evenodd" d="M75.579 10.8253L58.7382 9.29395L70.8929 15.1273L75.579 10.8253Z" fill="#00A859"/>
<path fill-rule="evenodd" clip-rule="evenodd" d="M79.3284 16.4111L75.9894 11.1172L71.6837 15.3171L79.3284 16.4111Z" fill="#00A859"/>
<path fill-rule="evenodd" clip-rule="evenodd" d="M76.6042 11.1313L90.1944 18.0296L80.0315 16.4983L76.6042 11.1313Z" fill="#00A859"/>
<path d="M104.966 0H7.96414C3.6941 0 0.232544 1.72362 0.232544 3.84981V52.1502C0.232544 54.2764 3.6941 56 7.96414 56H104.966C109.236 56 112.698 54.2764 112.698 52.1502V3.84981C112.698 1.72362 109.236 0 104.966 0Z" fill="#CCE7D4"/>
<path fill-rule="evenodd" clip-rule="evenodd" d="M45.5291 34.2685L41.468 38.3131V27.813L45.5291 34.2685Z" fill="#00A859"/>
<path fill-rule="evenodd" clip-rule="evenodd" d="M40.8382 37.6779L33.7621 27.9652L40.7519 27.8726L40.8382 37.6779Z" fill="#00A859"/>
<path fill-rule="evenodd" clip-rule="evenodd" d="M46.1534 34.5884L42.2485 38.2745L57.2831 38.8871L46.1534 34.5884Z" fill="#00A859"/>
<path fill-rule="evenodd" clip-rule="evenodd" d="M57.5562 39.2728L42.3267 38.7021L50.4102 42.6494L57.5562 39.2728Z" fill="#00A859"/>
<path fill-rule="evenodd" clip-rule="evenodd" d="M57.908 39.6548L50.8395 42.8825L57.6343 46.3629L57.908 39.6548Z" fill="#00A859"/>
<path fill-rule="evenodd" clip-rule="evenodd" d="M40.7845 38.5274L40.199 43.9525L27.6243 37.4385L40.7845 38.5274Z" fill="#00A859"/>
<path fill-rule="evenodd" clip-rule="evenodd" d="M37.8559 34.7158L40.7064 38.2548L27.5856 37.1077L37.8559 34.7158Z" fill="#00A859"/>
<path fill-rule="evenodd" clip-rule="evenodd" d="M41.4489 38.7212L57.5772 46.7324L40.7852 44.1074L41.4489 38.7212Z" fill="#00A859"/>
<path fill-rule="evenodd" clip-rule="evenodd" d="M62.1851 44.3213L58.2015 46.5769L58.5534 39.4604L62.1851 44.3213Z" fill="#00A859"/>
<path fill-rule="evenodd" clip-rule="evenodd" d="M69.5268 40.3937L62.6145 44.0879L59.139 39.2852L69.5268 40.3937Z" fill="#00A859"/>
<path fill-rule="evenodd" clip-rule="evenodd" d="M70.0527 40.7139L58.6499 46.7414L75.6763 45.0694L70.0527 40.7139Z" fill="#00A859"/>
<path fill-rule="evenodd" clip-rule="evenodd" d="M78.6259 39.9072L76.2435 44.9044L70.933 40.6653L78.6259 39.9072Z" fill="#00A859"/>
<path fill-rule="evenodd" clip-rule="evenodd" d="M79.4853 39.7907L76.8685 44.9435L90.0674 38.7407L79.4853 39.7907Z" fill="#00A859"/>
<path fill-rule="evenodd" clip-rule="evenodd" d="M74.6035 34.1318L70.7768 40.2375L78.899 39.4984L74.6035 34.1318Z" fill="#00A859"/>
<path fill-rule="evenodd" clip-rule="evenodd" d="M75.0336 33.8594L79.719 39.4205L90.3025 38.3901L75.0336 33.8594Z" fill="#00A859"/>
<path fill-rule="evenodd" clip-rule="evenodd" d="M70.1919 39.9845L68.4738 36.6594L73.9018 34.0537L70.1919 39.9845Z" fill="#00A859"/>
<path fill-rule="evenodd" clip-rule="evenodd" d="M67.9093 36.7759L69.4711 40.1203L58.8883 38.8758L67.9093 36.7759Z" fill="#00A859"/>
<path fill-rule="evenodd" clip-rule="evenodd" d="M32.5862 28.0064L26.8071 36.9316L22.7065 27.9482L32.5862 28.0064Z" fill="#00A859"/>
<path fill-rule="evenodd" clip-rule="evenodd" d="M37.5461 34.3451L27.5876 36.6785L33.0944 28.2397L37.5461 34.3451Z" fill="#00A859"/>
<path fill-rule="evenodd" clip-rule="evenodd" d="M26.7283 19.0225L32.43 27.5779H22.6277L26.7283 19.0225Z" fill="#00A859"/>
<path fill-rule="evenodd" clip-rule="evenodd" d="M41.0991 18.478L33.7187 27.5781L41.0603 27.4228L41.0991 18.478Z" fill="#00A859"/>
<path fill-rule="evenodd" clip-rule="evenodd" d="M37.1548 22.1338L33.0156 27.5008L27.2751 18.8672L37.1548 22.1338Z" fill="#00A859"/>
<path fill-rule="evenodd" clip-rule="evenodd" d="M40.7866 17.7388L27.9388 18.7498L37.3892 21.8027L40.7866 17.7388Z" fill="#00A859"/>
<path fill-rule="evenodd" clip-rule="evenodd" d="M40.9041 17.4192L27.1576 18.5081L40.0447 11.7803L40.9041 17.4192Z" fill="#00A859"/>
<path fill-rule="evenodd" clip-rule="evenodd" d="M45.6303 21.0249L41.8035 26.8972L41.7254 17.9331L45.6303 21.0249Z" fill="#00A859"/>
<path fill-rule="evenodd" clip-rule="evenodd" d="M57.4827 16.8926L46.1771 20.6744L42.5067 17.7579L57.4827 16.8926Z" fill="#00A859"/>
<path fill-rule="evenodd" clip-rule="evenodd" d="M49.1656 13.4706L41.5114 17.204L40.809 11.6426L49.1656 13.4706Z" fill="#00A859"/>
<path fill-rule="evenodd" clip-rule="evenodd" d="M49.7919 13.7344L42.4849 17.3278L57.5215 16.5007L49.7919 13.7344Z" fill="#00A859"/>
<path fill-rule="evenodd" clip-rule="evenodd" d="M50.2267 13.4513L57.959 16.3093L57.7246 9.61572L50.2267 13.4513Z" fill="#00A859"/>
<path fill-rule="evenodd" clip-rule="evenodd" d="M58.2667 9.4624L58.5887 16.3749L62.4549 11.7227L58.2667 9.4624Z" fill="#00A859"/>
<path fill-rule="evenodd" clip-rule="evenodd" d="M49.7152 13.2397L41.1337 11.4022L57.6519 9.2583L49.7152 13.2397Z" fill="#00A859"/>
<path fill-rule="evenodd" clip-rule="evenodd" d="M70.1878 15.8501L59.0289 16.8128L67.7863 19.0146L70.1878 15.8501Z" fill="#00A859"/>
<path fill-rule="evenodd" clip-rule="evenodd" d="M70.3352 15.4488L62.9542 11.9707L59.2932 16.3895L70.3352 15.4488Z" fill="#00A859"/>
<path fill-rule="evenodd" clip-rule="evenodd" d="M74.9045 22.0403L68.52 19.2259L70.8631 16.0029L74.9045 22.0403Z" fill="#00A859"/>
<path fill-rule="evenodd" clip-rule="evenodd" d="M78.9174 16.8631L71.4493 15.7837L75.4031 21.7338L78.9174 16.8631Z" fill="#00A859"/>
<path fill-rule="evenodd" clip-rule="evenodd" d="M79.8549 16.9067L75.8427 22.2152L89.8126 18.3359L79.8549 16.9067Z" fill="#00A859"/>
<path fill-rule="evenodd" clip-rule="evenodd" d="M75.579 10.8253L58.7382 9.29395L70.8929 15.1273L75.579 10.8253Z" fill="#00A859"/>
<path fill-rule="evenodd" clip-rule="evenodd" d="M79.3284 16.4111L75.9894 11.1172L71.6837 15.3171L79.3284 16.4111Z" fill="#00A859"/>
<path fill-rule="evenodd" clip-rule="evenodd" d="M76.6042 11.1313L90.1944 18.0296L80.0315 16.4983L76.6042 11.1313Z" fill="#00A859"/>
</svg>
